<?xml version="1.0" encoding="UTF-8" standalone="no"?>
<!-- Created with Inkscape (http://www.inkscape.org/) -->

<svg
   version="1.1"
   id="svg2"
   width="409.37067"
   height="292.86667"
   viewBox="0 0 409.37067 292.86667"
   sodipodi:docname="ANA-logo-RGB.ai"
   xmlns:inkscape="http://www.inkscape.org/namespaces/inkscape"
   xmlns:sodipodi="http://sodipodi.sourceforge.net/DTD/sodipodi-0.dtd"
   xmlns="http://www.w3.org/2000/svg"
   xmlns:svg="http://www.w3.org/2000/svg">
  <defs
     id="defs6">
    <clipPath
       clipPathUnits="userSpaceOnUse"
       id="clipPath16">
      <path
         d="M 0,219.65 H 307.028 V 0 H 0 Z"
         id="path14" />
    </clipPath>
  </defs>
  <sodipodi:namedview
     id="namedview4"
     bordercolor="#currentColor"
     borderopacity="0.25"
     inkscape:showpageshadow="2"
     inkscape:pageopacity="0.0"
     inkscape:pagecheckerboard="0"
     inkscape:deskcolor="#d1d1d1" />
  <g
     id="g8"
     inkscape:groupmode="layer"
     inkscape:label="ANA-logo-RGB"
     transform="matrix(1.3333333,0,0,-1.3333333,0,292.86667)">
    <g
       id="g10">
      <g
         id="g12"
         clip-path="url(#clipPath16)">
        <g
           id="g18"
           transform="translate(153.5114,91.455)">
          <path
             d="m 0,0 c -23.482,0 -42.578,19.097 -42.578,42.578 0,23.482 19.096,42.579 42.578,42.579 23.474,0 42.57,-19.097 42.57,-42.579 C 42.57,19.097 23.474,0 0,0 m 0,89.268 c -25.746,0 -46.69,-20.943 -46.69,-46.69 0,-25.746 20.944,-46.69 46.69,-46.69 25.738,0 46.682,20.944 46.682,46.69 0,25.747 -20.944,46.69 -46.682,46.69"
             style="fill:currentColor;fill-opacity:1;fill-rule:nonzero;stroke:none"
             id="path20" />
        </g>
        <g
           id="g22"
           transform="translate(162.4291,119.5371)">
          <path
             d="m 0,0 -6.732,17.894 h 13.83 z m -11.111,11.099 h -13.83 l 6.909,17.419 c 0.419,-0.932 0.871,-1.986 1.356,-3.165 l 3.101,-7.704 z M 7.341,37.847 v -2.303 c 1.698,0 2.909,-0.214 3.639,-0.639 0.728,-0.424 1.09,-1.201 1.09,-2.336 0,-0.401 -0.06,-0.928 -0.181,-1.576 -0.122,-0.645 -0.333,-1.435 -0.639,-2.366 -0.303,-0.928 -0.694,-2.03 -1.181,-3.303 -0.484,-1.274 -1.07,-2.741 -1.757,-4.4 H -7.884 l -6.598,16.923 h -11.414 v -2.366 c 1.053,0 1.951,-0.098 2.698,-0.302 0.75,-0.201 1.448,-0.645 2.093,-1.336 0.415,-0.439 0.838,-1.03 1.268,-1.744 L -33.312,-1.639 c -0.362,-0.849 -0.737,-1.566 -1.119,-2.152 -0.385,-0.585 -0.829,-1.059 -1.336,-1.424 -0.506,-0.366 -1.092,-0.649 -1.76,-0.849 -0.665,-0.204 -1.464,-0.366 -2.396,-0.487 v -2.304 h 14.738 v 2.304 c -1.697,0 -2.908,0.214 -3.639,0.638 -0.727,0.424 -1.089,1.201 -1.089,2.336 0,0.402 0.059,0.928 0.181,1.576 0.122,0.645 0.332,1.435 0.638,2.366 0.303,0.928 0.695,2.03 1.182,3.304 0.483,1.273 1.069,2.741 1.757,4.399 h 16.196 l 6.586,-16.923 h 0.464 1.712 0.894 l 15.772,39.486 c 0.362,0.849 0.737,1.566 1.118,2.152 0.385,0.586 0.83,1.06 1.336,1.425 0.507,0.365 1.093,0.648 1.761,0.849 0.664,0.204 1.464,0.365 2.395,0.487 v 2.303 z"
             style="fill:currentColor;fill-opacity:1;fill-rule:nonzero;stroke:none"
             id="path24" />
        </g>
        <g
           id="g26"
           transform="translate(62.8611,41.1876)">
          <path
             d="m 0,0 v 0.34 c 0.184,0.041 0.323,0.082 0.417,0.127 0.09,0.045 0.135,0.085 0.135,0.122 V 4.563 C 0.552,4.596 0.507,4.637 0.426,4.686 0.336,4.735 0.196,4.78 0,4.817 V 5.156 H 2.251 V 4.817 C 2.067,4.78 1.928,4.739 1.833,4.69 1.743,4.645 1.698,4.604 1.698,4.563 V 0.589 C 1.698,0.557 1.743,0.516 1.825,0.471 1.915,0.422 2.054,0.381 2.251,0.34 V 0 Z"
             style="fill:currentColor;fill-opacity:1;fill-rule:nonzero;stroke:none"
             id="path28" />
        </g>
        <g
           id="g30"
           transform="translate(67.2809,41.1876)">
          <path
             d="M 0,0 V 0.34 C 0.201,0.364 0.34,0.405 0.426,0.454 0.512,0.507 0.552,0.552 0.552,0.589 V 4.51 C 0.467,4.592 0.376,4.661 0.278,4.714 0.188,4.772 0.094,4.804 0,4.817 V 5.156 H 1.236 C 1.277,5.156 1.31,5.152 1.334,5.148 1.363,5.14 1.387,5.128 1.416,5.103 1.445,5.083 1.473,5.05 1.506,5.009 1.535,4.964 1.576,4.911 1.629,4.837 L 4.072,1.445 V 4.563 C 4.072,4.579 4.064,4.6 4.047,4.624 4.031,4.645 4.002,4.669 3.961,4.694 3.916,4.714 3.859,4.739 3.79,4.759 3.72,4.784 3.63,4.8 3.519,4.817 v 0.339 h 1.76 V 4.817 C 5.083,4.792 4.944,4.751 4.854,4.698 4.772,4.649 4.727,4.604 4.727,4.563 V -0.123 C 4.575,-0.11 4.44,-0.09 4.322,-0.057 4.199,-0.029 4.092,0.012 3.994,0.053 3.904,0.098 3.822,0.147 3.753,0.201 3.683,0.258 3.63,0.315 3.585,0.372 L 1.207,3.663 V 0.589 C 1.207,0.573 1.215,0.552 1.236,0.532 1.252,0.507 1.281,0.483 1.326,0.462 1.371,0.438 1.424,0.417 1.498,0.393 1.563,0.372 1.653,0.356 1.76,0.34 V 0 Z"
             style="fill:currentColor;fill-opacity:1;fill-rule:nonzero;stroke:none"
             id="path32" />
        </g>
        <g
           id="g34"
           transform="translate(75.6089,41.1876)">
          <path
             d="m 0,0 v 0.34 c 0.127,0.024 0.229,0.053 0.311,0.077 0.082,0.029 0.147,0.054 0.192,0.082 0.045,0.025 0.078,0.049 0.099,0.074 0.02,0.02 0.028,0.045 0.028,0.061 v 3.99 H -0.348 C -0.389,4.624 -0.43,4.608 -0.467,4.575 -0.503,4.538 -0.544,4.485 -0.585,4.416 -0.622,4.342 -0.667,4.248 -0.716,4.133 -0.761,4.019 -0.814,3.884 -0.876,3.724 l -0.339,0.119 c 0.004,0.082 0.016,0.18 0.028,0.298 0.012,0.123 0.029,0.246 0.045,0.373 0.021,0.127 0.037,0.245 0.058,0.364 0.016,0.115 0.032,0.209 0.045,0.278 h 4.46 L 3.585,5.013 C 3.581,4.944 3.577,4.854 3.564,4.747 3.552,4.641 3.54,4.53 3.524,4.416 3.507,4.297 3.491,4.182 3.474,4.068 3.454,3.949 3.438,3.851 3.421,3.765 H 3.073 C 3.045,3.892 3.024,4.006 3.008,4.113 2.992,4.219 2.971,4.309 2.951,4.387 2.93,4.461 2.902,4.518 2.869,4.563 2.836,4.604 2.791,4.624 2.734,4.624 H 1.776 V 0.634 C 1.776,0.618 1.784,0.597 1.805,0.577 1.825,0.552 1.858,0.528 1.903,0.499 1.948,0.475 2.013,0.446 2.095,0.417 2.177,0.393 2.279,0.364 2.406,0.34 V 0 Z"
             style="fill:currentColor;fill-opacity:1;fill-rule:nonzero;stroke:none"
             id="path36" />
        </g>
        <g
           id="g38"
           transform="translate(85.3283,42.5136)">
          <path
             d="M 0,0 C -0.012,-0.115 -0.025,-0.246 -0.037,-0.381 -0.049,-0.52 -0.065,-0.651 -0.082,-0.778 -0.098,-0.904 -0.115,-1.019 -0.131,-1.117 -0.143,-1.215 -0.156,-1.285 -0.168,-1.326 H -4.15 v 0.34 c 0.184,0.041 0.324,0.082 0.418,0.127 0.09,0.045 0.135,0.086 0.135,0.122 v 3.974 c 0,0.033 -0.045,0.074 -0.127,0.123 -0.09,0.049 -0.229,0.094 -0.426,0.131 V 3.83 h 3.708 L -0.266,3.687 C -0.27,3.618 -0.278,3.524 -0.291,3.409 -0.303,3.294 -0.315,3.18 -0.331,3.057 -0.348,2.938 -0.364,2.824 -0.385,2.717 -0.401,2.611 -0.417,2.533 -0.434,2.48 H -0.782 C -0.794,2.734 -0.831,2.934 -0.884,3.082 -0.937,3.225 -1.015,3.298 -1.117,3.298 H -2.451 V 1.682 h 1.616 L -0.688,1.526 C -0.708,1.49 -0.737,1.445 -0.769,1.391 -0.798,1.342 -0.831,1.289 -0.868,1.236 -0.9,1.183 -0.933,1.134 -0.966,1.089 -1.003,1.048 -1.035,1.015 -1.064,0.99 -1.105,1.031 -1.15,1.068 -1.195,1.093 -1.244,1.121 -1.301,1.146 -1.359,1.162 -1.424,1.183 -1.494,1.195 -1.58,1.203 -1.662,1.211 -1.76,1.215 -1.874,1.215 h -0.577 v -1.747 c 0,-0.041 0.008,-0.078 0.028,-0.106 0.021,-0.033 0.058,-0.062 0.119,-0.082 0.061,-0.025 0.143,-0.041 0.254,-0.053 0.11,-0.013 0.253,-0.021 0.434,-0.021 h 0.364 c 0.127,0 0.233,0.016 0.319,0.053 0.09,0.033 0.168,0.086 0.237,0.16 0.07,0.074 0.131,0.168 0.189,0.282 0.053,0.115 0.11,0.254 0.167,0.414 z"
             style="fill:currentColor;fill-opacity:1;fill-rule:nonzero;stroke:none"
             id="path40" />
        </g>
        <g
           id="g42"
           transform="translate(89.2284,46.0003)">
          <path
             d="m 0,0 h -0.09 c -0.033,-0.004 -0.066,-0.004 -0.102,-0.004 v -1.899 c 0.073,-0.012 0.139,-0.02 0.192,-0.025 0.053,0 0.11,-0.004 0.172,-0.004 0.176,0 0.323,0.025 0.446,0.074 0.123,0.045 0.225,0.115 0.299,0.205 0.082,0.086 0.139,0.196 0.172,0.323 0.041,0.127 0.057,0.27 0.057,0.43 0,0.118 -0.016,0.233 -0.049,0.339 C 1.068,-0.45 1.007,-0.356 0.925,-0.27 0.835,-0.188 0.72,-0.123 0.573,-0.074 0.422,-0.025 0.233,0 0,0 m -1.891,-4.813 v 0.34 c 0.184,0.041 0.324,0.082 0.418,0.127 0.09,0.045 0.135,0.086 0.135,0.123 v 4.104 l -0.553,-0.077 -0.057,0.417 c 0.299,0.065 0.626,0.119 0.99,0.172 0.365,0.049 0.745,0.074 1.15,0.074 0.389,0 0.717,-0.029 0.987,-0.095 C 1.449,0.311 1.67,0.225 1.833,0.11 2.005,0 2.124,-0.131 2.202,-0.282 2.275,-0.434 2.312,-0.597 2.312,-0.773 2.312,-0.958 2.284,-1.13 2.226,-1.285 2.173,-1.445 2.095,-1.584 1.997,-1.711 1.895,-1.837 1.776,-1.952 1.637,-2.046 1.494,-2.144 1.338,-2.222 1.17,-2.284 l 1.31,-1.714 c 0.045,-0.058 0.082,-0.103 0.123,-0.139 0.032,-0.033 0.073,-0.062 0.123,-0.078 0.04,-0.021 0.098,-0.029 0.155,-0.033 0.066,0 0.139,0 0.233,0.008 L 3.18,-4.579 C 3.09,-4.608 2.983,-4.641 2.865,-4.674 2.742,-4.71 2.619,-4.739 2.505,-4.768 2.382,-4.796 2.271,-4.821 2.169,-4.841 2.067,-4.858 1.989,-4.87 1.936,-4.87 c -0.078,0 -0.156,0.025 -0.234,0.066 -0.073,0.045 -0.131,0.098 -0.167,0.159 l -1.154,2.21 -0.07,-0.004 h -0.07 c -0.069,0 -0.143,0.004 -0.212,0.012 -0.07,0.004 -0.144,0.017 -0.221,0.033 v -1.829 c 0,-0.033 0.041,-0.074 0.127,-0.119 0.085,-0.049 0.225,-0.09 0.425,-0.131 v -0.34 z"
             style="fill:currentColor;fill-opacity:1;fill-rule:nonzero;stroke:none"
             id="path44" />
        </g>
        <g
           id="g46"
           transform="translate(94.2088,41.1876)">
          <path
             d="M 0,0 V 0.34 C 0.201,0.364 0.34,0.405 0.426,0.454 0.512,0.507 0.552,0.552 0.552,0.589 V 4.51 C 0.467,4.592 0.376,4.661 0.278,4.714 0.188,4.772 0.094,4.804 0,4.817 V 5.156 H 1.236 C 1.277,5.156 1.31,5.152 1.334,5.148 1.363,5.14 1.387,5.128 1.416,5.103 1.445,5.083 1.473,5.05 1.506,5.009 1.535,4.964 1.576,4.911 1.629,4.837 L 4.072,1.445 V 4.563 C 4.072,4.579 4.064,4.6 4.047,4.624 4.031,4.645 4.002,4.669 3.961,4.694 3.916,4.714 3.859,4.739 3.79,4.759 3.72,4.784 3.63,4.8 3.519,4.817 v 0.339 h 1.76 V 4.817 C 5.083,4.792 4.944,4.751 4.854,4.698 4.772,4.649 4.727,4.604 4.727,4.563 V -0.123 C 4.575,-0.11 4.44,-0.09 4.322,-0.057 4.199,-0.029 4.092,0.012 3.994,0.053 3.904,0.098 3.822,0.147 3.753,0.201 3.683,0.258 3.63,0.315 3.585,0.372 L 1.207,3.663 V 0.589 C 1.207,0.573 1.215,0.552 1.236,0.532 1.252,0.507 1.281,0.483 1.326,0.462 1.371,0.438 1.424,0.417 1.498,0.393 1.563,0.372 1.653,0.356 1.76,0.34 V 0 Z"
             style="fill:currentColor;fill-opacity:1;fill-rule:nonzero;stroke:none"
             id="path48" />
        </g>
        <g
           id="g50"
           transform="translate(104.3661,43.4589)">
          <path
             d="M 0,0 -0.659,1.833 -1.244,0 Z m -1.42,-0.532 -0.372,-1.121 c -0.029,-0.082 0.004,-0.144 0.094,-0.184 0.094,-0.037 0.249,-0.07 0.474,-0.095 v -0.339 h -1.817 v 0.339 c 0.185,0.033 0.328,0.07 0.422,0.103 0.094,0.037 0.155,0.094 0.184,0.176 l 1.4,4.28 c 0.073,0.066 0.155,0.119 0.245,0.172 0.086,0.049 0.176,0.094 0.27,0.135 0.094,0.041 0.184,0.078 0.279,0.107 0.09,0.032 0.176,0.057 0.257,0.077 L 1.735,-1.653 C 1.747,-1.69 1.764,-1.723 1.788,-1.756 1.805,-1.784 1.837,-1.809 1.87,-1.833 1.911,-1.854 1.956,-1.874 2.013,-1.891 2.071,-1.907 2.144,-1.919 2.23,-1.932 V -2.271 H 0.094 v 0.339 c 0.209,0.013 0.352,0.037 0.426,0.082 0.077,0.041 0.098,0.107 0.069,0.197 l -0.401,1.121 z"
             style="fill:currentColor;fill-opacity:1;fill-rule:nonzero;stroke:none"
             id="path52" />
        </g>
        <g
           id="g54"
           transform="translate(109.5717,41.1876)">
          <path
             d="m 0,0 v 0.34 c 0.127,0.024 0.229,0.053 0.311,0.077 0.082,0.029 0.147,0.054 0.192,0.082 0.045,0.025 0.078,0.049 0.099,0.074 0.02,0.02 0.028,0.045 0.028,0.061 v 3.99 H -0.348 C -0.389,4.624 -0.43,4.608 -0.467,4.575 -0.503,4.538 -0.544,4.485 -0.585,4.416 -0.622,4.342 -0.667,4.248 -0.716,4.133 -0.761,4.019 -0.814,3.884 -0.876,3.724 l -0.339,0.119 c 0.004,0.082 0.016,0.18 0.028,0.298 0.012,0.123 0.029,0.246 0.045,0.373 0.021,0.127 0.037,0.245 0.058,0.364 0.016,0.115 0.032,0.209 0.045,0.278 h 4.46 L 3.585,5.013 C 3.581,4.944 3.577,4.854 3.564,4.747 3.552,4.641 3.54,4.53 3.524,4.416 3.507,4.297 3.491,4.182 3.474,4.068 3.454,3.949 3.438,3.851 3.421,3.765 H 3.073 C 3.045,3.892 3.024,4.006 3.008,4.113 2.992,4.219 2.971,4.309 2.951,4.387 2.93,4.461 2.902,4.518 2.869,4.563 2.836,4.604 2.791,4.624 2.734,4.624 H 1.776 V 0.634 C 1.776,0.618 1.784,0.597 1.805,0.577 1.825,0.552 1.858,0.528 1.903,0.499 1.948,0.475 2.013,0.446 2.095,0.417 2.177,0.393 2.279,0.364 2.406,0.34 V 0 Z"
             style="fill:currentColor;fill-opacity:1;fill-rule:nonzero;stroke:none"
             id="path56" />
        </g>
        <g
           id="g58"
           transform="translate(115.2233,41.1876)">
          <path
             d="m 0,0 v 0.34 c 0.184,0.041 0.323,0.082 0.417,0.127 0.09,0.045 0.135,0.085 0.135,0.122 V 4.563 C 0.552,4.596 0.507,4.637 0.426,4.686 0.336,4.735 0.196,4.78 0,4.817 V 5.156 H 2.251 V 4.817 C 2.067,4.78 1.928,4.739 1.833,4.69 1.743,4.645 1.698,4.604 1.698,4.563 V 0.589 C 1.698,0.557 1.743,0.516 1.825,0.471 1.915,0.422 2.054,0.381 2.251,0.34 V 0 Z"
             style="fill:currentColor;fill-opacity:1;fill-rule:nonzero;stroke:none"
             id="path60" />
        </g>
        <g
           id="g62"
           transform="translate(123.2935,43.7617)">
          <path
             d="M 0,0 C 0,0.282 -0.033,0.552 -0.094,0.814 -0.16,1.072 -0.25,1.301 -0.372,1.502 -0.487,1.698 -0.63,1.858 -0.798,1.977 c -0.164,0.118 -0.348,0.176 -0.548,0.176 -0.18,0 -0.34,-0.045 -0.475,-0.14 C -1.96,1.919 -2.075,1.78 -2.169,1.6 -2.263,1.42 -2.333,1.199 -2.378,0.941 -2.423,0.679 -2.447,0.385 -2.447,0.049 c 0,-0.303 0.032,-0.589 0.102,-0.855 0.07,-0.262 0.164,-0.495 0.278,-0.688 0.123,-0.196 0.258,-0.348 0.418,-0.462 0.159,-0.111 0.327,-0.168 0.507,-0.168 0.164,0 0.315,0.045 0.459,0.131 0.139,0.086 0.257,0.217 0.36,0.389 0.102,0.176 0.18,0.397 0.237,0.663 C -0.029,-0.671 0,-0.36 0,0 m 1.166,0.074 c 0,-0.246 -0.032,-0.487 -0.09,-0.721 C 1.011,-0.876 0.929,-1.097 0.814,-1.301 0.708,-1.51 0.573,-1.698 0.422,-1.866 0.27,-2.038 0.098,-2.185 -0.086,-2.308 -0.274,-2.431 -0.475,-2.525 -0.683,-2.595 -0.896,-2.66 -1.117,-2.697 -1.342,-2.697 c -0.348,0 -0.663,0.074 -0.946,0.217 -0.282,0.147 -0.519,0.34 -0.716,0.581 -0.196,0.246 -0.348,0.524 -0.454,0.839 -0.102,0.319 -0.156,0.647 -0.156,0.99 0,0.373 0.062,0.725 0.18,1.06 0.123,0.336 0.295,0.631 0.516,0.884 0.221,0.254 0.483,0.459 0.794,0.606 0.303,0.151 0.647,0.225 1.019,0.225 0.368,0 0.692,-0.074 0.978,-0.221 C 0.151,2.333 0.389,2.136 0.585,1.891 0.773,1.645 0.921,1.367 1.019,1.048 1.117,0.733 1.166,0.409 1.166,0.074"
             style="fill:currentColor;fill-opacity:1;fill-rule:nonzero;stroke:none"
             id="path64" />
        </g>
        <g
           id="g66"
           transform="translate(126.5919,41.1876)">
          <path
             d="M 0,0 V 0.34 C 0.201,0.364 0.34,0.405 0.426,0.454 0.512,0.507 0.552,0.552 0.552,0.589 V 4.51 C 0.467,4.592 0.376,4.661 0.278,4.714 0.188,4.772 0.094,4.804 0,4.817 V 5.156 H 1.236 C 1.277,5.156 1.31,5.152 1.334,5.148 1.363,5.14 1.387,5.128 1.416,5.103 1.445,5.083 1.473,5.05 1.506,5.009 1.535,4.964 1.576,4.911 1.629,4.837 L 4.072,1.445 V 4.563 C 4.072,4.579 4.064,4.6 4.047,4.624 4.031,4.645 4.002,4.669 3.961,4.694 3.916,4.714 3.859,4.739 3.79,4.759 3.72,4.784 3.63,4.8 3.519,4.817 v 0.339 h 1.76 V 4.817 C 5.083,4.792 4.944,4.751 4.854,4.698 4.772,4.649 4.727,4.604 4.727,4.563 V -0.123 C 4.575,-0.11 4.44,-0.09 4.322,-0.057 4.199,-0.029 4.092,0.012 3.994,0.053 3.904,0.098 3.822,0.147 3.753,0.201 3.683,0.258 3.63,0.315 3.585,0.372 L 1.207,3.663 V 0.589 C 1.207,0.573 1.215,0.552 1.236,0.532 1.252,0.507 1.281,0.483 1.326,0.462 1.371,0.438 1.424,0.417 1.498,0.393 1.563,0.372 1.653,0.356 1.76,0.34 V 0 Z"
             style="fill:currentColor;fill-opacity:1;fill-rule:nonzero;stroke:none"
             id="path68" />
        </g>
        <g
           id="g70"
           transform="translate(136.7492,43.4589)">
          <path
             d="M 0,0 -0.659,1.833 -1.244,0 Z m -1.42,-0.532 -0.372,-1.121 c -0.029,-0.082 0.004,-0.144 0.094,-0.184 0.094,-0.037 0.249,-0.07 0.474,-0.095 v -0.339 h -1.817 v 0.339 c 0.185,0.033 0.328,0.07 0.422,0.103 0.094,0.037 0.155,0.094 0.184,0.176 l 1.4,4.28 c 0.073,0.066 0.155,0.119 0.245,0.172 0.086,0.049 0.176,0.094 0.27,0.135 0.094,0.041 0.184,0.078 0.279,0.107 0.09,0.032 0.176,0.057 0.257,0.077 L 1.735,-1.653 C 1.747,-1.69 1.764,-1.723 1.788,-1.756 1.805,-1.784 1.837,-1.809 1.87,-1.833 1.911,-1.854 1.956,-1.874 2.013,-1.891 2.071,-1.907 2.144,-1.919 2.23,-1.932 V -2.271 H 0.094 v 0.339 c 0.209,0.013 0.352,0.037 0.426,0.082 0.077,0.041 0.098,0.107 0.069,0.197 l -0.401,1.121 z"
             style="fill:currentColor;fill-opacity:1;fill-rule:nonzero;stroke:none"
             id="path72" />
        </g>
        <g
           id="g74"
           transform="translate(145.0118,42.5136)">
          <path
             d="M 0,0 C -0.012,-0.115 -0.025,-0.246 -0.041,-0.381 -0.053,-0.52 -0.07,-0.651 -0.082,-0.778 -0.098,-0.904 -0.115,-1.019 -0.131,-1.117 -0.143,-1.215 -0.156,-1.285 -0.168,-1.326 h -3.941 v 0.34 c 0.184,0.041 0.324,0.082 0.418,0.127 0.09,0.045 0.135,0.086 0.135,0.122 v 3.974 c 0,0.033 -0.045,0.074 -0.127,0.123 -0.09,0.049 -0.229,0.094 -0.426,0.131 V 3.83 h 2.251 V 3.491 C -2.042,3.454 -2.181,3.413 -2.275,3.364 -2.365,3.319 -2.41,3.278 -2.41,3.237 v -3.728 c 0,-0.049 0.012,-0.09 0.036,-0.127 0.021,-0.037 0.062,-0.07 0.119,-0.094 0.057,-0.029 0.135,-0.045 0.233,-0.061 0.099,-0.013 0.221,-0.021 0.373,-0.021 h 0.421 c 0.127,0 0.229,0.016 0.319,0.053 0.082,0.033 0.16,0.086 0.226,0.16 0.065,0.074 0.126,0.168 0.176,0.282 0.057,0.115 0.11,0.254 0.167,0.414 z"
             style="fill:currentColor;fill-opacity:1;fill-rule:nonzero;stroke:none"
             id="path76" />
        </g>
        <g
           id="g78"
           transform="translate(154.8908,42.5136)">
          <path
             d="M 0,0 C -0.012,-0.115 -0.025,-0.246 -0.041,-0.381 -0.053,-0.52 -0.07,-0.651 -0.082,-0.778 -0.098,-0.904 -0.115,-1.019 -0.131,-1.117 -0.143,-1.215 -0.156,-1.285 -0.168,-1.326 h -3.941 v 0.34 c 0.184,0.041 0.324,0.082 0.418,0.127 0.09,0.045 0.135,0.086 0.135,0.122 v 3.974 c 0,0.033 -0.045,0.074 -0.127,0.123 -0.09,0.049 -0.229,0.094 -0.426,0.131 V 3.83 h 2.251 V 3.491 C -2.042,3.454 -2.181,3.413 -2.275,3.364 -2.365,3.319 -2.41,3.278 -2.41,3.237 v -3.728 c 0,-0.049 0.012,-0.09 0.036,-0.127 0.021,-0.037 0.062,-0.07 0.119,-0.094 0.057,-0.029 0.135,-0.045 0.233,-0.061 0.099,-0.013 0.221,-0.021 0.373,-0.021 h 0.421 c 0.127,0 0.229,0.016 0.319,0.053 0.082,0.033 0.16,0.086 0.226,0.16 0.065,0.074 0.126,0.168 0.176,0.282 0.057,0.115 0.11,0.254 0.167,0.414 z"
             style="fill:currentColor;fill-opacity:1;fill-rule:nonzero;stroke:none"
             id="path80" />
        </g>
        <g
           id="g82"
           transform="translate(156.9002,41.1876)">
          <path
             d="m 0,0 v 0.34 c 0.184,0.041 0.323,0.082 0.417,0.127 0.09,0.045 0.135,0.085 0.135,0.122 V 4.563 C 0.552,4.596 0.507,4.637 0.426,4.686 0.336,4.735 0.196,4.78 0,4.817 V 5.156 H 2.251 V 4.817 C 2.067,4.78 1.928,4.739 1.833,4.69 1.743,4.645 1.698,4.604 1.698,4.563 V 0.589 C 1.698,0.557 1.743,0.516 1.825,0.471 1.915,0.422 2.054,0.381 2.251,0.34 V 0 Z"
             style="fill:currentColor;fill-opacity:1;fill-rule:nonzero;stroke:none"
             id="path84" />
        </g>
        <g
           id="g86"
           transform="translate(162.3717,41.1876)">
          <path
             d="m 0,0 v 0.34 c 0.127,0.024 0.229,0.053 0.311,0.077 0.082,0.029 0.147,0.054 0.192,0.082 0.045,0.025 0.078,0.049 0.099,0.074 0.02,0.02 0.028,0.045 0.028,0.061 v 3.99 H -0.348 C -0.389,4.624 -0.43,4.608 -0.467,4.575 -0.503,4.538 -0.544,4.485 -0.585,4.416 -0.622,4.342 -0.667,4.248 -0.716,4.133 -0.761,4.019 -0.814,3.884 -0.876,3.724 l -0.339,0.119 c 0.004,0.082 0.016,0.18 0.028,0.298 0.012,0.123 0.029,0.246 0.045,0.373 0.021,0.127 0.037,0.245 0.058,0.364 0.016,0.115 0.032,0.209 0.045,0.278 h 4.46 L 3.585,5.013 C 3.581,4.944 3.577,4.854 3.564,4.747 3.552,4.641 3.54,4.53 3.524,4.416 3.507,4.297 3.491,4.182 3.474,4.068 3.454,3.949 3.438,3.851 3.421,3.765 H 3.073 C 3.045,3.892 3.024,4.006 3.008,4.113 2.992,4.219 2.971,4.309 2.951,4.387 2.93,4.461 2.902,4.518 2.869,4.563 2.836,4.604 2.791,4.624 2.734,4.624 H 1.776 V 0.634 C 1.776,0.618 1.784,0.597 1.805,0.577 1.825,0.552 1.858,0.528 1.903,0.499 1.948,0.475 2.013,0.446 2.095,0.417 2.177,0.393 2.279,0.364 2.406,0.34 V 0 Z"
             style="fill:currentColor;fill-opacity:1;fill-rule:nonzero;stroke:none"
             id="path88" />
        </g>
        <g
           id="g90"
           transform="translate(172.0871,42.5136)">
          <path
             d="M 0,0 C -0.012,-0.115 -0.025,-0.246 -0.037,-0.381 -0.049,-0.52 -0.065,-0.651 -0.082,-0.778 -0.098,-0.904 -0.115,-1.019 -0.131,-1.117 -0.143,-1.215 -0.156,-1.285 -0.168,-1.326 H -4.15 v 0.34 c 0.184,0.041 0.324,0.082 0.418,0.127 0.09,0.045 0.135,0.086 0.135,0.122 v 3.974 c 0,0.033 -0.045,0.074 -0.127,0.123 -0.09,0.049 -0.229,0.094 -0.426,0.131 V 3.83 h 3.708 L -0.266,3.687 C -0.27,3.618 -0.278,3.524 -0.291,3.409 -0.303,3.294 -0.315,3.18 -0.331,3.057 -0.348,2.938 -0.364,2.824 -0.385,2.717 -0.401,2.611 -0.417,2.533 -0.434,2.48 H -0.782 C -0.794,2.734 -0.831,2.934 -0.884,3.082 -0.937,3.225 -1.015,3.298 -1.117,3.298 H -2.451 V 1.682 h 1.616 L -0.688,1.526 C -0.708,1.49 -0.737,1.445 -0.769,1.391 -0.798,1.342 -0.831,1.289 -0.868,1.236 -0.9,1.183 -0.933,1.134 -0.966,1.089 -1.003,1.048 -1.035,1.015 -1.064,0.99 -1.105,1.031 -1.15,1.068 -1.195,1.093 -1.244,1.121 -1.301,1.146 -1.359,1.162 -1.424,1.183 -1.494,1.195 -1.58,1.203 -1.662,1.211 -1.76,1.215 -1.874,1.215 h -0.577 v -1.747 c 0,-0.041 0.008,-0.078 0.028,-0.106 0.021,-0.033 0.058,-0.062 0.119,-0.082 0.061,-0.025 0.143,-0.041 0.254,-0.053 0.11,-0.013 0.253,-0.021 0.433,-0.021 h 0.365 c 0.127,0 0.233,0.016 0.319,0.053 0.09,0.033 0.168,0.086 0.237,0.16 0.07,0.074 0.131,0.168 0.189,0.282 0.053,0.115 0.11,0.254 0.167,0.414 z"
             style="fill:currentColor;fill-opacity:1;fill-rule:nonzero;stroke:none"
             id="path92" />
        </g>
        <g
           id="g94"
           transform="translate(175.9912,46.0003)">
          <path
             d="m 0,0 h -0.061 c -0.062,-0.004 -0.095,-0.004 -0.131,-0.004 v -1.899 c 0.073,-0.012 0.139,-0.02 0.192,-0.025 0.053,0 0.11,-0.004 0.172,-0.004 0.176,0 0.323,0.025 0.446,0.074 0.123,0.045 0.225,0.115 0.299,0.205 0.082,0.086 0.139,0.196 0.172,0.323 0.041,0.127 0.057,0.27 0.057,0.43 0,0.118 -0.016,0.233 -0.049,0.339 C 1.068,-0.45 1.007,-0.356 0.925,-0.27 0.835,-0.188 0.72,-0.123 0.573,-0.074 0.422,-0.025 0.233,0 0,0 m -1.891,-4.813 v 0.34 c 0.184,0.041 0.324,0.082 0.418,0.127 0.09,0.045 0.135,0.086 0.135,0.123 v 4.104 l -0.553,-0.077 -0.057,0.417 c 0.299,0.065 0.626,0.119 0.99,0.172 0.365,0.049 0.745,0.074 1.15,0.074 0.389,0 0.717,-0.029 0.987,-0.095 C 1.449,0.311 1.67,0.225 1.833,0.11 2.005,0 2.124,-0.131 2.202,-0.282 2.275,-0.434 2.312,-0.597 2.312,-0.773 2.312,-0.958 2.284,-1.13 2.226,-1.285 2.173,-1.445 2.095,-1.584 1.997,-1.711 1.895,-1.837 1.776,-1.952 1.637,-2.046 1.494,-2.144 1.338,-2.222 1.17,-2.284 l 1.31,-1.714 c 0.045,-0.058 0.082,-0.103 0.123,-0.139 0.032,-0.033 0.073,-0.062 0.123,-0.078 0.04,-0.021 0.098,-0.029 0.155,-0.033 0.066,0 0.139,0 0.233,0.008 L 3.18,-4.579 C 3.09,-4.608 2.983,-4.641 2.865,-4.674 2.742,-4.71 2.619,-4.739 2.505,-4.768 2.382,-4.796 2.271,-4.821 2.169,-4.841 2.067,-4.858 1.989,-4.87 1.936,-4.87 c -0.078,0 -0.156,0.025 -0.234,0.066 -0.073,0.045 -0.131,0.098 -0.167,0.159 l -1.154,2.21 c -0.021,0 -0.045,-0.004 -0.07,-0.004 h -0.07 c -0.069,0 -0.143,0.004 -0.212,0.012 -0.07,0.004 -0.144,0.017 -0.221,0.033 v -1.829 c 0,-0.033 0.041,-0.074 0.127,-0.119 0.085,-0.049 0.225,-0.09 0.425,-0.131 v -0.34 z"
             style="fill:currentColor;fill-opacity:1;fill-rule:nonzero;stroke:none"
             id="path96" />
        </g>
        <g
           id="g98"
           transform="translate(183.8445,43.4589)">
          <path
             d="M 0,0 -0.659,1.833 -1.244,0 Z m -1.42,-0.532 -0.372,-1.121 c -0.029,-0.082 0.004,-0.144 0.094,-0.184 0.094,-0.037 0.249,-0.07 0.474,-0.095 v -0.339 h -1.817 v 0.339 c 0.185,0.033 0.328,0.07 0.422,0.103 0.094,0.037 0.155,0.094 0.184,0.176 l 1.4,4.28 c 0.073,0.066 0.155,0.119 0.245,0.172 0.086,0.049 0.176,0.094 0.27,0.135 0.094,0.041 0.184,0.078 0.279,0.107 0.09,0.032 0.176,0.057 0.257,0.077 L 1.735,-1.653 C 1.747,-1.69 1.764,-1.723 1.788,-1.756 1.805,-1.784 1.837,-1.809 1.87,-1.833 1.911,-1.854 1.956,-1.874 2.013,-1.891 2.071,-1.907 2.144,-1.919 2.23,-1.932 V -2.271 H 0.094 v 0.339 c 0.209,0.013 0.352,0.037 0.426,0.082 0.077,0.041 0.098,0.107 0.069,0.197 l -0.401,1.121 z"
             style="fill:currentColor;fill-opacity:1;fill-rule:nonzero;stroke:none"
             id="path100" />
        </g>
        <g
           id="g102"
           transform="translate(189.8931,46.0003)">
          <path
             d="m 0,0 h -0.09 c -0.033,-0.004 -0.066,-0.004 -0.102,-0.004 v -1.899 c 0.073,-0.012 0.139,-0.02 0.192,-0.025 0.053,0 0.11,-0.004 0.172,-0.004 0.176,0 0.323,0.025 0.446,0.074 0.123,0.045 0.225,0.115 0.299,0.205 0.082,0.086 0.139,0.196 0.172,0.323 0.041,0.127 0.057,0.27 0.057,0.43 0,0.118 -0.016,0.233 -0.049,0.339 C 1.068,-0.45 1.007,-0.356 0.925,-0.27 0.835,-0.188 0.72,-0.123 0.573,-0.074 0.422,-0.025 0.233,0 0,0 m -1.891,-4.813 v 0.34 c 0.184,0.041 0.324,0.082 0.418,0.127 0.09,0.045 0.135,0.086 0.135,0.123 v 4.104 l -0.553,-0.077 -0.057,0.417 c 0.299,0.065 0.626,0.119 0.99,0.172 0.365,0.049 0.745,0.074 1.15,0.074 0.389,0 0.717,-0.029 0.987,-0.095 C 1.449,0.311 1.67,0.225 1.833,0.11 2.005,0 2.124,-0.131 2.202,-0.282 2.275,-0.434 2.312,-0.597 2.312,-0.773 2.312,-0.958 2.284,-1.13 2.226,-1.285 2.173,-1.445 2.095,-1.584 1.997,-1.711 1.895,-1.837 1.776,-1.952 1.637,-2.046 1.494,-2.144 1.338,-2.222 1.17,-2.284 l 1.31,-1.714 c 0.045,-0.058 0.082,-0.103 0.123,-0.139 0.032,-0.033 0.073,-0.062 0.123,-0.078 0.04,-0.021 0.098,-0.029 0.155,-0.033 0.066,0 0.139,0 0.233,0.008 L 3.18,-4.579 C 3.09,-4.608 2.983,-4.641 2.865,-4.674 2.742,-4.71 2.619,-4.739 2.505,-4.768 2.382,-4.796 2.271,-4.821 2.169,-4.841 2.067,-4.858 1.989,-4.87 1.936,-4.87 c -0.078,0 -0.156,0.025 -0.234,0.066 -0.073,0.045 -0.131,0.098 -0.167,0.159 l -1.154,2.21 c -0.021,0 -0.045,-0.004 -0.045,-0.004 H 0.241 c -0.069,0 -0.143,0.004 -0.212,0.012 -0.07,0.004 -0.144,0.017 -0.221,0.033 v -1.829 c 0,-0.033 0.041,-0.074 0.127,-0.119 0.085,-0.049 0.225,-0.09 0.425,-0.131 v -0.34 z"
             style="fill:currentColor;fill-opacity:1;fill-rule:nonzero;stroke:none"
             id="path104" />
        </g>
        <g
           id="g106"
           transform="translate(196.1012,41.1876)">
          <path
             d="M 0,0 V 0.34 C 0.123,0.364 0.225,0.393 0.307,0.417 0.389,0.446 0.454,0.471 0.499,0.499 0.548,0.524 0.581,0.548 0.602,0.573 0.622,0.593 0.63,0.618 0.63,0.634 V 2.157 C 0.532,2.374 0.422,2.595 0.303,2.824 0.184,3.053 0.061,3.274 -0.061,3.487 -0.184,3.7 -0.303,3.9 -0.426,4.08 -0.54,4.264 -0.651,4.42 -0.745,4.547 -0.769,4.579 -0.794,4.604 -0.818,4.628 -0.847,4.649 -0.88,4.669 -0.925,4.686 -0.97,4.698 -1.027,4.71 -1.097,4.719 -1.166,4.727 -1.26,4.731 -1.375,4.731 L -1.391,5.07 c 0.077,0.013 0.171,0.025 0.278,0.041 0.11,0.013 0.217,0.029 0.327,0.041 0.111,0.013 0.213,0.021 0.307,0.033 0.094,0.008 0.172,0.012 0.229,0.012 0.078,0 0.16,-0.016 0.246,-0.053 C 0.082,5.111 0.147,5.062 0.192,4.997 0.295,4.862 0.397,4.706 0.507,4.53 0.618,4.358 0.728,4.174 0.835,3.978 0.949,3.785 1.056,3.585 1.162,3.38 1.273,3.172 1.375,2.971 1.469,2.775 L 2.378,4.547 C 2.419,4.62 2.406,4.674 2.341,4.714 2.271,4.755 2.132,4.792 1.923,4.817 V 5.156 H 3.667 V 4.817 C 3.573,4.8 3.495,4.784 3.429,4.768 3.36,4.747 3.303,4.731 3.258,4.71 3.213,4.69 3.172,4.665 3.143,4.641 3.114,4.612 3.09,4.583 3.069,4.547 L 1.776,2.108 V 0.634 C 1.776,0.618 1.784,0.597 1.805,0.577 1.825,0.552 1.858,0.528 1.907,0.499 1.952,0.475 2.018,0.446 2.099,0.417 2.181,0.393 2.288,0.364 2.415,0.34 V 0 Z"
             style="fill:currentColor;fill-opacity:1;fill-rule:nonzero;stroke:none"
             id="path108" />
        </g>
        <g
           id="g110"
           transform="translate(208.4561,43.4589)">
          <path
             d="M 0,0 -0.659,1.833 -1.244,0 Z m -1.42,-0.532 -0.372,-1.121 c -0.029,-0.082 0.004,-0.144 0.094,-0.184 0.094,-0.037 0.249,-0.07 0.474,-0.095 v -0.339 h -1.817 v 0.339 c 0.185,0.033 0.328,0.07 0.422,0.103 0.094,0.037 0.155,0.094 0.184,0.176 l 1.4,4.28 c 0.073,0.066 0.155,0.119 0.245,0.172 0.086,0.049 0.176,0.094 0.27,0.135 0.094,0.041 0.184,0.078 0.279,0.107 0.09,0.032 0.176,0.057 0.257,0.077 L 1.735,-1.653 C 1.747,-1.69 1.764,-1.723 1.788,-1.756 1.805,-1.784 1.837,-1.809 1.87,-1.833 1.911,-1.854 1.956,-1.874 2.013,-1.891 2.071,-1.907 2.144,-1.919 2.23,-1.932 V -2.271 H 0.094 v 0.339 c 0.209,0.013 0.352,0.037 0.426,0.082 0.078,0.041 0.098,0.107 0.069,0.197 l -0.401,1.121 z"
             style="fill:currentColor;fill-opacity:1;fill-rule:nonzero;stroke:none"
             id="path112" />
        </g>
        <g
           id="g114"
           transform="translate(216.997,46.0494)">
          <path
             d="M 0,0 C 0.012,-0.008 0.016,-0.037 0,-0.082 -0.008,-0.127 -0.029,-0.184 -0.057,-0.25 -0.086,-0.315 -0.119,-0.385 -0.156,-0.458 -0.192,-0.536 -0.233,-0.606 -0.27,-0.675 -0.311,-0.741 -0.348,-0.802 -0.385,-0.855 -0.422,-0.909 -0.45,-0.945 -0.475,-0.97 l -0.298,0.066 c -0.09,0.147 -0.181,0.274 -0.271,0.372 -0.09,0.102 -0.184,0.184 -0.278,0.246 -0.094,0.061 -0.192,0.106 -0.295,0.13 -0.102,0.029 -0.208,0.041 -0.323,0.041 -0.069,0 -0.147,-0.012 -0.233,-0.041 -0.086,-0.024 -0.176,-0.073 -0.27,-0.135 -0.094,-0.065 -0.184,-0.151 -0.27,-0.253 -0.086,-0.107 -0.168,-0.238 -0.234,-0.397 -0.073,-0.16 -0.126,-0.348 -0.171,-0.565 -0.041,-0.213 -0.062,-0.462 -0.062,-0.749 0,-0.36 0.041,-0.667 0.119,-0.925 0.078,-0.254 0.184,-0.466 0.319,-0.63 0.135,-0.164 0.287,-0.282 0.458,-0.36 0.172,-0.078 0.352,-0.119 0.541,-0.119 0.131,0 0.245,0.012 0.352,0.033 0.098,0.024 0.192,0.053 0.278,0.09 v 1.207 c 0,0.033 -0.004,0.062 -0.008,0.09 -0.009,0.029 -0.033,0.058 -0.066,0.082 -0.041,0.029 -0.098,0.057 -0.18,0.082 -0.078,0.029 -0.192,0.057 -0.344,0.082 v 0.339 H 0.381 V -2.623 C 0.303,-2.64 0.237,-2.664 0.188,-2.689 0.139,-2.713 0.098,-2.738 0.07,-2.771 0.041,-2.799 0.02,-2.832 0.008,-2.861 -0.004,-2.893 -0.008,-2.926 -0.008,-2.959 V -4.15 c -0.201,-0.163 -0.393,-0.303 -0.573,-0.409 -0.18,-0.11 -0.352,-0.192 -0.508,-0.258 -0.163,-0.061 -0.311,-0.106 -0.454,-0.131 -0.143,-0.024 -0.274,-0.037 -0.397,-0.037 -0.2,0 -0.401,0.025 -0.597,0.07 -0.201,0.045 -0.389,0.111 -0.565,0.205 -0.18,0.09 -0.344,0.204 -0.499,0.343 -0.148,0.14 -0.279,0.303 -0.393,0.487 -0.107,0.189 -0.197,0.397 -0.258,0.631 -0.061,0.233 -0.094,0.491 -0.094,0.769 0,0.454 0.074,0.859 0.221,1.22 0.143,0.356 0.344,0.662 0.606,0.912 0.253,0.25 0.56,0.438 0.916,0.569 0.352,0.131 0.737,0.196 1.15,0.196 0.09,0 0.201,-0.008 0.332,-0.028 0.127,-0.017 0.262,-0.045 0.397,-0.082 0.135,-0.033 0.27,-0.078 0.397,-0.131 C -0.196,0.127 -0.086,0.065 0,0"
             style="fill:currentColor;fill-opacity:1;fill-rule:nonzero;stroke:none"
             id="path116" />
        </g>
        <g
           id="g118"
           transform="translate(223.5284,42.5136)">
          <path
             d="M 0,0 C -0.012,-0.115 -0.025,-0.246 -0.037,-0.381 -0.049,-0.52 -0.065,-0.651 -0.082,-0.778 -0.098,-0.904 -0.115,-1.019 -0.131,-1.117 -0.143,-1.215 -0.156,-1.285 -0.168,-1.326 H -4.15 v 0.34 c 0.184,0.041 0.324,0.082 0.418,0.127 0.09,0.045 0.135,0.086 0.135,0.122 v 3.974 c 0,0.033 -0.045,0.074 -0.127,0.123 -0.09,0.049 -0.229,0.094 -0.426,0.131 V 3.83 h 3.708 L -0.266,3.687 C -0.27,3.618 -0.278,3.524 -0.291,3.409 -0.303,3.294 -0.315,3.18 -0.331,3.057 -0.348,2.938 -0.364,2.824 -0.385,2.717 -0.401,2.611 -0.417,2.533 -0.434,2.48 H -0.782 C -0.794,2.734 -0.831,2.934 -0.884,3.082 -0.937,3.225 -1.015,3.298 -1.117,3.298 H -2.451 V 1.682 h 1.616 L -0.688,1.526 C -0.708,1.49 -0.737,1.445 -0.769,1.391 -0.798,1.342 -0.831,1.289 -0.868,1.236 -0.9,1.183 -0.933,1.134 -0.966,1.089 -1.003,1.048 -1.035,1.015 -1.064,0.99 -1.105,1.031 -1.15,1.068 -1.195,1.093 -1.244,1.121 -1.301,1.146 -1.359,1.162 -1.424,1.183 -1.494,1.195 -1.58,1.203 -1.661,1.211 -1.76,1.215 -1.874,1.215 h -0.577 v -1.747 c 0,-0.041 0.008,-0.078 0.028,-0.106 0.021,-0.033 0.058,-0.062 0.119,-0.082 0.061,-0.025 0.143,-0.041 0.254,-0.053 0.11,-0.013 0.253,-0.021 0.434,-0.021 h 0.364 c 0.127,0 0.233,0.016 0.319,0.053 0.09,0.033 0.168,0.086 0.237,0.16 0.07,0.074 0.131,0.168 0.189,0.282 0.053,0.115 0.11,0.254 0.167,0.414 z"
             style="fill:currentColor;fill-opacity:1;fill-rule:nonzero;stroke:none"
             id="path120" />
        </g>
        <g
           id="g122"
           transform="translate(225.5419,41.1876)">
          <path
             d="M 0,0 V 0.34 C 0.201,0.364 0.34,0.405 0.426,0.454 0.512,0.507 0.552,0.552 0.552,0.589 V 4.51 C 0.467,4.592 0.377,4.661 0.278,4.714 0.188,4.772 0.094,4.804 0,4.817 V 5.156 H 1.236 C 1.277,5.156 1.31,5.152 1.334,5.148 1.363,5.14 1.387,5.128 1.416,5.103 1.445,5.083 1.473,5.05 1.506,5.009 1.535,4.964 1.576,4.911 1.629,4.837 L 4.072,1.445 V 4.563 C 4.072,4.579 4.064,4.6 4.047,4.624 4.031,4.645 4.002,4.669 3.961,4.694 3.916,4.714 3.859,4.739 3.79,4.759 3.72,4.784 3.63,4.8 3.519,4.817 v 0.339 h 1.76 V 4.817 C 5.083,4.792 4.944,4.751 4.854,4.698 4.772,4.649 4.727,4.604 4.727,4.563 V -0.123 C 4.575,-0.11 4.44,-0.09 4.322,-0.057 4.199,-0.029 4.092,0.012 3.994,0.053 3.904,0.098 3.822,0.147 3.753,0.201 3.683,0.258 3.63,0.315 3.585,0.372 L 1.207,3.663 V 0.589 C 1.207,0.573 1.215,0.552 1.236,0.532 1.252,0.507 1.281,0.483 1.326,0.462 1.371,0.438 1.424,0.417 1.498,0.393 1.563,0.372 1.653,0.356 1.76,0.34 V 0 Z"
             style="fill:currentColor;fill-opacity:1;fill-rule:nonzero;stroke:none"
             id="path124" />
        </g>
        <g
           id="g126"
           transform="translate(237.107,42.0511)">
          <path
             d="m 0,0 c -0.348,-0.352 -0.696,-0.602 -1.039,-0.757 -0.34,-0.152 -0.672,-0.229 -0.995,-0.229 -0.282,0 -0.561,0.057 -0.822,0.172 -0.271,0.114 -0.504,0.282 -0.713,0.495 -0.204,0.217 -0.368,0.479 -0.491,0.794 -0.127,0.311 -0.188,0.667 -0.188,1.06 0,0.438 0.066,0.834 0.205,1.186 0.131,0.356 0.319,0.659 0.556,0.913 0.234,0.25 0.512,0.446 0.835,0.581 0.323,0.139 0.671,0.205 1.048,0.201 0.147,0 0.294,-0.008 0.446,-0.033 0.151,-0.021 0.295,-0.049 0.43,-0.086 C -0.593,4.26 -0.467,4.215 -0.352,4.166 -0.241,4.117 -0.147,4.064 -0.078,4.006 -0.065,3.998 -0.065,3.974 -0.082,3.925 -0.09,3.88 -0.111,3.822 -0.139,3.757 -0.168,3.687 -0.196,3.618 -0.233,3.54 -0.27,3.462 -0.303,3.389 -0.344,3.315 -0.377,3.245 -0.413,3.184 -0.446,3.127 -0.479,3.073 -0.507,3.037 -0.528,3.012 L -0.835,3.077 C -0.97,3.356 -1.13,3.552 -1.301,3.671 -1.481,3.79 -1.666,3.847 -1.866,3.843 -2.005,3.843 -2.149,3.81 -2.292,3.745 -2.435,3.679 -2.566,3.564 -2.685,3.401 -2.803,3.237 -2.897,3.016 -2.971,2.742 -3.045,2.464 -3.082,2.112 -3.082,1.686 c 0,-0.344 0.045,-0.638 0.131,-0.88 0.086,-0.245 0.201,-0.446 0.34,-0.601 0.139,-0.156 0.295,-0.27 0.471,-0.344 0.176,-0.074 0.348,-0.111 0.523,-0.111 0.074,0 0.16,0.009 0.262,0.025 0.103,0.012 0.209,0.041 0.332,0.082 0.114,0.041 0.245,0.098 0.376,0.172 0.14,0.069 0.275,0.163 0.414,0.278 C -0.221,0.299 -0.201,0.278 -0.18,0.246 -0.156,0.217 -0.131,0.184 -0.106,0.151 -0.086,0.115 -0.065,0.086 -0.041,0.057 -0.025,0.029 -0.008,0.008 0,0"
             style="fill:currentColor;fill-opacity:1;fill-rule:nonzero;stroke:none"
             id="path128" />
        </g>
        <g
           id="g130"
           transform="translate(240.4627,41.1876)">
          <path
             d="M 0,0 V 0.34 C 0.123,0.364 0.225,0.393 0.307,0.417 0.389,0.446 0.454,0.471 0.499,0.499 0.548,0.524 0.581,0.548 0.602,0.573 0.622,0.593 0.63,0.618 0.63,0.634 V 2.157 C 0.532,2.374 0.422,2.595 0.303,2.824 0.184,3.053 0.061,3.274 -0.061,3.487 -0.184,3.7 -0.303,3.9 -0.426,4.08 -0.54,4.264 -0.651,4.42 -0.745,4.547 -0.769,4.579 -0.794,4.604 -0.818,4.628 -0.847,4.649 -0.88,4.669 -0.925,4.686 -0.97,4.698 -1.027,4.71 -1.097,4.719 -1.166,4.727 -1.26,4.731 -1.375,4.731 L -1.391,5.07 c 0.077,0.013 0.171,0.025 0.278,0.041 0.11,0.013 0.217,0.029 0.327,0.041 0.111,0.013 0.213,0.021 0.307,0.033 0.094,0.008 0.172,0.012 0.229,0.012 0.078,0 0.16,-0.016 0.246,-0.053 C 0.082,5.111 0.147,5.062 0.192,4.997 0.295,4.862 0.397,4.706 0.507,4.53 0.618,4.358 0.728,4.174 0.835,3.978 0.949,3.785 1.056,3.585 1.162,3.38 1.273,3.172 1.375,2.971 1.469,2.775 L 2.378,4.547 C 2.419,4.62 2.406,4.674 2.341,4.714 2.271,4.755 2.132,4.792 1.923,4.817 V 5.156 H 3.667 V 4.817 C 3.573,4.8 3.495,4.784 3.429,4.768 3.36,4.747 3.303,4.731 3.258,4.71 3.213,4.69 3.172,4.665 3.143,4.641 3.114,4.612 3.09,4.583 3.069,4.547 L 1.776,2.108 V 0.634 C 1.776,0.618 1.784,0.597 1.805,0.577 1.825,0.552 1.858,0.528 1.907,0.499 1.952,0.475 2.018,0.446 2.099,0.417 2.181,0.393 2.288,0.364 2.415,0.34 V 0 Z"
             style="fill:currentColor;fill-opacity:1;fill-rule:nonzero;stroke:none"
             id="path132" />
        </g>
        <g
           id="g134"
           transform="translate(49.7211,63.4623)">
          <path
             d="M 0,0 -1.692,4.942 -3.336,0 Z m -3.625,-0.865 -1.067,-3.212 c -0.064,-0.198 0.022,-0.343 0.26,-0.432 0.237,-0.09 0.618,-0.164 1.144,-0.221 v -0.414 h -4 v 0.414 c 0.436,0.076 0.782,0.157 1.038,0.24 0.257,0.083 0.417,0.221 0.481,0.413 l 3.577,10.826 c 0.147,0.161 0.33,0.305 0.548,0.436 0.218,0.132 0.41,0.244 0.577,0.334 L 2.971,-4.077 C 3.003,-4.166 3.048,-4.246 3.106,-4.317 3.163,-4.387 3.24,-4.448 3.336,-4.5 3.432,-4.551 3.554,-4.596 3.702,-4.634 3.849,-4.673 4.025,-4.705 4.23,-4.73 V -5.144 H 0.173 v 0.414 c 0.5,0.032 0.846,0.096 1.038,0.192 0.193,0.096 0.254,0.25 0.183,0.461 l -1.096,3.212 z"
             style="fill:currentColor;fill-opacity:1;fill-rule:nonzero;stroke:none"
             id="path136" />
        </g>
        <g
           id="g138"
           transform="translate(60.0056,58.3185)">
          <path
             d="M 0,0 V 0.413 C 0.462,0.535 0.801,0.641 1.019,0.731 1.237,0.82 1.346,0.91 1.346,1 V 6.086 C 1.346,6.477 1.324,6.794 1.279,7.038 1.234,7.282 1.163,7.474 1.067,7.615 0.971,7.756 0.843,7.852 0.686,7.903 0.529,7.955 0.34,7.98 0.115,7.98 -0.083,7.98 -0.304,7.932 -0.548,7.836 -0.792,7.74 -1.051,7.586 -1.333,7.374 -1.609,7.163 -1.904,6.884 -2.205,6.541 -2.513,6.198 -2.817,5.778 -3.125,5.278 V 1 c 0,-0.096 0.119,-0.196 0.362,-0.298 0.238,-0.103 0.568,-0.199 0.984,-0.289 V 0 h -4.134 v 0.413 c 0.423,0.109 0.753,0.206 0.99,0.292 0.237,0.087 0.356,0.186 0.356,0.295 v 5.836 c 0,0.25 -0.01,0.449 -0.029,0.596 -0.019,0.148 -0.07,0.263 -0.16,0.346 -0.083,0.084 -0.218,0.144 -0.397,0.183 -0.18,0.038 -0.433,0.077 -0.76,0.115 v 0.385 c 0.436,0.07 0.84,0.17 1.211,0.301 0.372,0.132 0.738,0.289 1.097,0.468 L -3.269,8.894 -3.163,6.5 c 0.282,0.429 0.593,0.81 0.932,1.147 0.34,0.336 0.683,0.622 1.029,0.856 0.346,0.234 0.68,0.413 1.003,0.538 C 0.125,9.166 0.413,9.23 0.663,9.23 0.939,9.23 1.205,9.188 1.461,9.105 1.718,9.022 1.942,8.894 2.141,8.721 2.333,8.547 2.49,8.326 2.609,8.06 2.727,7.794 2.788,7.483 2.788,7.124 V 1 C 2.788,0.91 2.884,0.82 3.083,0.734 3.275,0.647 3.628,0.542 4.134,0.413 V 0 Z"
             style="fill:currentColor;fill-opacity:1;fill-rule:nonzero;stroke:none"
             id="path140" />
        </g>
        <g
           id="g142"
           transform="translate(71.2964,60.8279)">
          <path
             d="M 0,0 V 4.509 C -0.212,4.875 -0.51,5.157 -0.894,5.359 -1.279,5.56 -1.702,5.663 -2.163,5.663 -2.574,5.663 -2.949,5.586 -3.288,5.435 -3.628,5.285 -3.923,5.061 -4.17,4.759 -4.416,4.458 -4.609,4.083 -4.746,3.634 -4.884,3.186 -4.952,2.66 -4.952,2.058 c 0,-0.545 0.077,-1.042 0.238,-1.488 0.153,-0.445 0.355,-0.823 0.599,-1.137 0.243,-0.314 0.51,-0.558 0.804,-0.728 0.289,-0.17 0.568,-0.253 0.83,-0.253 0.218,0 0.433,0.045 0.645,0.135 0.211,0.089 0.419,0.205 0.625,0.349 0.205,0.144 0.407,0.311 0.612,0.497 C -0.401,-0.381 -0.199,-0.192 0,0 M 2.942,-1.702 C 2.647,-1.9 2.384,-2.07 2.157,-2.208 1.929,-2.346 1.731,-2.458 1.561,-2.545 1.391,-2.631 1.247,-2.695 1.125,-2.737 1.003,-2.779 0.897,-2.798 0.808,-2.798 c -0.212,0 -0.385,0.144 -0.52,0.433 -0.134,0.288 -0.224,0.782 -0.269,1.48 -0.243,-0.294 -0.484,-0.56 -0.727,-0.798 -0.237,-0.237 -0.487,-0.439 -0.737,-0.602 -0.257,-0.164 -0.523,-0.289 -0.805,-0.378 -0.282,-0.09 -0.586,-0.135 -0.913,-0.135 -0.359,0 -0.728,0.103 -1.106,0.311 -0.378,0.208 -0.727,0.51 -1.042,0.901 -0.32,0.391 -0.576,0.868 -0.781,1.432 -0.199,0.564 -0.302,1.202 -0.302,1.913 0,0.366 0.048,0.744 0.148,1.135 0.099,0.391 0.243,0.769 0.429,1.135 0.186,0.365 0.414,0.711 0.683,1.038 0.269,0.327 0.57,0.612 0.904,0.859 0.333,0.247 0.698,0.442 1.096,0.583 0.397,0.141 0.82,0.212 1.269,0.212 0.301,0 0.599,-0.039 0.9,-0.113 C -0.67,6.535 -0.346,6.371 0,6.115 V 9.74 c 0,0.352 -0.01,0.631 -0.029,0.839 -0.019,0.209 -0.074,0.369 -0.163,0.481 -0.09,0.112 -0.228,0.189 -0.414,0.231 -0.186,0.041 -0.448,0.077 -0.788,0.102 v 0.375 c 0.525,0.071 0.997,0.164 1.413,0.282 0.417,0.119 0.792,0.234 1.125,0.343 L 1.442,12.105 V -0.067 c 0,-0.225 0.003,-0.417 0.016,-0.577 0.007,-0.16 0.023,-0.295 0.042,-0.404 0.019,-0.109 0.042,-0.199 0.067,-0.269 0.026,-0.071 0.058,-0.128 0.096,-0.173 0.058,-0.071 0.167,-0.093 0.334,-0.064 0.16,0.028 0.436,0.118 0.82,0.266 z"
             style="fill:currentColor;fill-opacity:1;fill-rule:nonzero;stroke:none"
             id="path144" />
        </g>
        <g
           id="g146"
           transform="translate(81.2828,67.1928)">
          <path
             d="m 0,0 c 0.058,-0.038 0.083,-0.151 0.083,-0.337 -0.006,-0.185 -0.032,-0.4 -0.077,-0.644 -0.051,-0.243 -0.112,-0.493 -0.189,-0.75 -0.077,-0.256 -0.154,-0.471 -0.23,-0.644 h -0.414 c -0.038,0.257 -0.093,0.475 -0.163,0.654 -0.071,0.179 -0.154,0.32 -0.247,0.426 -0.093,0.106 -0.196,0.183 -0.308,0.231 -0.112,0.048 -0.227,0.074 -0.349,0.074 -0.141,0 -0.308,-0.061 -0.497,-0.18 -0.189,-0.118 -0.381,-0.304 -0.58,-0.557 -0.199,-0.254 -0.397,-0.577 -0.593,-0.972 -0.195,-0.394 -0.368,-0.862 -0.522,-1.406 v -3.769 c 0,-0.097 0.118,-0.196 0.362,-0.298 0.237,-0.103 0.66,-0.199 1.263,-0.289 v -0.413 h -4.413 v 0.413 c 0.423,0.096 0.753,0.189 0.99,0.282 0.237,0.093 0.356,0.196 0.356,0.305 v 5.595 c 0,0.212 -0.007,0.388 -0.02,0.532 -0.012,0.145 -0.029,0.263 -0.048,0.353 -0.019,0.09 -0.045,0.16 -0.07,0.211 -0.032,0.052 -0.058,0.093 -0.084,0.125 -0.044,0.045 -0.096,0.081 -0.147,0.109 -0.058,0.029 -0.128,0.055 -0.212,0.074 -0.089,0.019 -0.192,0.032 -0.314,0.042 -0.121,0.009 -0.272,0.022 -0.451,0.035 v 0.385 c 0.416,0.109 0.823,0.218 1.227,0.33 0.397,0.112 0.76,0.259 1.08,0.439 l 0.337,-0.337 0.125,-2.182 c 0.173,0.352 0.362,0.682 0.56,0.99 0.206,0.308 0.42,0.574 0.651,0.801 0.231,0.228 0.471,0.407 0.727,0.535 0.25,0.129 0.516,0.193 0.792,0.193 0.205,0 0.426,-0.026 0.664,-0.077 C -0.474,0.228 -0.237,0.135 0,0"
             style="fill:currentColor;fill-opacity:1;fill-rule:nonzero;stroke:none"
             id="path148" />
        </g>
        <g
           id="g150"
           transform="translate(85.6959,66.539)">
          <path
             d="M 0,0 C -0.333,0 -0.641,-0.064 -0.917,-0.192 -1.199,-0.32 -1.445,-0.503 -1.66,-0.737 -1.875,-0.971 -2.051,-1.25 -2.199,-1.574 -2.34,-1.897 -2.442,-2.253 -2.5,-2.644 h 4.115 c 0.148,0 0.244,0.022 0.295,0.07 0.045,0.049 0.071,0.141 0.071,0.276 0,0.173 -0.026,0.388 -0.071,0.647 -0.051,0.26 -0.147,0.513 -0.288,0.76 C 1.474,-0.644 1.276,-0.433 1.013,-0.26 0.756,-0.087 0.417,0 0,0 M 3.557,-2.865 C 3.442,-2.993 3.288,-3.112 3.096,-3.221 2.904,-3.33 2.705,-3.426 2.5,-3.509 h -5.057 c 0.006,-0.5 0.073,-0.978 0.205,-1.43 0.131,-0.452 0.32,-0.849 0.57,-1.192 0.244,-0.343 0.542,-0.615 0.891,-0.82 0.349,-0.206 0.744,-0.308 1.179,-0.308 0.199,0 0.391,0.013 0.584,0.038 0.186,0.026 0.391,0.084 0.609,0.173 0.218,0.09 0.458,0.222 0.724,0.395 0.266,0.173 0.58,0.407 0.939,0.702 C 3.227,-5.996 3.298,-6.06 3.359,-6.144 3.42,-6.227 3.468,-6.294 3.5,-6.346 3.07,-6.814 2.692,-7.192 2.372,-7.477 2.045,-7.762 1.74,-7.98 1.455,-8.134 1.17,-8.288 0.891,-8.39 0.609,-8.438 0.333,-8.487 0.029,-8.509 -0.298,-8.509 c -0.494,0 -0.965,0.106 -1.407,0.317 -0.449,0.212 -0.84,0.51 -1.179,0.898 -0.34,0.387 -0.609,0.855 -0.814,1.403 C -3.897,-5.343 -4,-4.727 -4,-4.048 c 0,0.43 0.048,0.853 0.145,1.269 0.096,0.417 0.233,0.811 0.419,1.183 0.18,0.372 0.404,0.715 0.667,1.029 0.263,0.314 0.561,0.586 0.894,0.817 0.141,0.096 0.298,0.189 0.478,0.282 0.173,0.093 0.359,0.176 0.551,0.247 0.192,0.07 0.381,0.125 0.57,0.166 C -0.087,0.987 0.096,1.01 0.269,1.01 0.686,1.01 1.058,0.952 1.385,0.836 1.711,0.721 1.997,0.564 2.24,0.369 2.484,0.173 2.689,-0.054 2.856,-0.314 3.022,-0.574 3.16,-0.846 3.263,-1.135 3.372,-1.423 3.445,-1.718 3.49,-2.016 3.535,-2.314 3.557,-2.596 3.557,-2.865"
             style="fill:currentColor;fill-opacity:1;fill-rule:nonzero;stroke:none"
             id="path152" />
        </g>
        <g
           id="g154"
           transform="translate(103.0344,66.8467)">
          <path
             d="M 0,0 C -0.199,-0.045 -0.356,-0.09 -0.471,-0.131 -0.586,-0.173 -0.676,-0.215 -0.747,-0.256 -0.811,-0.298 -0.862,-0.346 -0.888,-0.401 -0.92,-0.455 -0.942,-0.519 -0.961,-0.596 L -3.086,-7.961 C -3.125,-8.102 -3.202,-8.224 -3.311,-8.323 -3.426,-8.422 -3.548,-8.506 -3.682,-8.573 -3.817,-8.64 -3.952,-8.692 -4.08,-8.73 -4.214,-8.769 -4.32,-8.797 -4.404,-8.817 l -2.288,6.519 -1.971,-5.663 c -0.051,-0.147 -0.128,-0.272 -0.237,-0.372 -0.103,-0.099 -0.221,-0.182 -0.349,-0.25 -0.128,-0.067 -0.253,-0.118 -0.382,-0.154 -0.121,-0.035 -0.227,-0.06 -0.311,-0.08 l -2.519,8.221 c -0.057,0.25 -0.407,0.449 -1.048,0.596 v 0.413 h 3.712 V 0 c -0.314,-0.032 -0.558,-0.071 -0.731,-0.112 -0.173,-0.042 -0.298,-0.09 -0.375,-0.144 -0.077,-0.055 -0.119,-0.109 -0.119,-0.167 -0.006,-0.058 0.004,-0.115 0.023,-0.173 l 1.807,-6.105 2.366,7.114 h 0.663 l 2.5,-7.114 1.663,6.105 c 0.039,0.147 -0.029,0.266 -0.202,0.356 -0.173,0.089 -0.48,0.169 -0.923,0.24 v 0.413 l 3.125,0 z"
             style="fill:currentColor;fill-opacity:1;fill-rule:nonzero;stroke:none"
             id="path156" />
        </g>
        <g
           id="g158"
           transform="translate(108.0532,58.3185)">
          <path
             d="M 0,0 V 0.413 C 0.474,0.471 0.824,0.561 1.051,0.683 1.279,0.804 1.394,0.91 1.394,1 V 11.047 C 1.183,11.246 0.958,11.393 0.724,11.493 0.49,11.592 0.25,11.663 0,11.701 v 0.413 h 2.038 c 0.096,0 0.173,-0.009 0.237,-0.025 0.058,-0.016 0.122,-0.048 0.186,-0.1 C 2.525,11.938 2.593,11.861 2.666,11.762 2.74,11.663 2.84,11.531 2.961,11.365 L 9.278,2.654 v 8.451 c 0,0.077 -0.106,0.176 -0.311,0.301 -0.211,0.125 -0.57,0.225 -1.083,0.295 v 0.413 h 3.942 V 11.701 C 11.365,11.637 11.015,11.544 10.781,11.422 10.547,11.3 10.432,11.195 10.432,11.105 V -0.288 C 10.111,-0.25 9.858,-0.186 9.679,-0.096 9.493,-0.006 9.365,0.093 9.288,0.202 L 2.548,9.547 V 1 C 2.548,0.923 2.654,0.824 2.872,0.702 3.083,0.58 3.442,0.484 3.942,0.413 V 0 Z"
             style="fill:currentColor;fill-opacity:1;fill-rule:nonzero;stroke:none"
             id="path160" />
        </g>
        <g
           id="g162"
           transform="translate(129.5869,59.1069)">
          <path
             d="m 0,0 c -0.237,-0.154 -0.465,-0.298 -0.683,-0.429 -0.218,-0.132 -0.419,-0.244 -0.605,-0.34 -0.186,-0.096 -0.35,-0.173 -0.491,-0.228 -0.141,-0.054 -0.25,-0.08 -0.327,-0.08 -0.224,0 -0.407,0.148 -0.548,0.446 -0.141,0.298 -0.23,0.778 -0.269,1.439 C -3.32,0.41 -3.686,0.087 -4.016,-0.16 c -0.33,-0.247 -0.634,-0.436 -0.91,-0.571 -0.282,-0.134 -0.538,-0.227 -0.769,-0.275 -0.237,-0.048 -0.455,-0.071 -0.66,-0.071 -0.302,0 -0.59,0.042 -0.866,0.125 -0.275,0.083 -0.519,0.234 -0.73,0.455 -0.212,0.221 -0.378,0.526 -0.507,0.91 -0.121,0.385 -0.186,0.879 -0.186,1.481 v 4.154 c 0,0.307 -0.009,0.544 -0.028,0.714 -0.02,0.17 -0.071,0.298 -0.151,0.385 -0.08,0.086 -0.202,0.147 -0.369,0.179 -0.166,0.032 -0.397,0.064 -0.692,0.097 v 0.384 c 0.231,0.026 0.446,0.058 0.651,0.096 0.198,0.039 0.394,0.084 0.583,0.135 0.189,0.051 0.381,0.109 0.574,0.176 0.192,0.067 0.394,0.144 0.605,0.228 l 0.27,-0.375 V 2.423 c 0,-0.449 0.032,-0.824 0.102,-1.125 0.064,-0.301 0.16,-0.542 0.289,-0.721 0.121,-0.18 0.275,-0.308 0.461,-0.385 0.18,-0.077 0.388,-0.115 0.619,-0.115 0.205,0 0.413,0.029 0.631,0.09 0.212,0.061 0.433,0.157 0.66,0.288 0.228,0.131 0.468,0.301 0.718,0.51 0.25,0.208 0.516,0.464 0.798,0.766 v 4.317 c 0,0.288 -0.016,0.519 -0.042,0.692 C -2.997,6.913 -3.057,7.048 -3.154,7.144 -3.25,7.24 -3.388,7.307 -3.561,7.346 -3.74,7.384 -3.974,7.41 -4.269,7.423 v 0.384 c 0.462,0.058 0.904,0.148 1.327,0.269 0.423,0.122 0.814,0.244 1.173,0.366 L -1.481,8.067 V 1.654 c 0,-0.398 0.016,-0.721 0.042,-0.971 0.032,-0.25 0.09,-0.407 0.179,-0.471 0.077,-0.052 0.209,-0.065 0.395,-0.036 0.186,0.029 0.442,0.116 0.769,0.257 z"
             style="fill:currentColor;fill-opacity:1;fill-rule:nonzero;stroke:none"
             id="path164" />
        </g>
        <g
           id="g166"
           transform="translate(136.7498,67.1928)">
          <path
             d="m 0,0 c 0.058,-0.038 0.083,-0.151 0.083,-0.337 -0.006,-0.185 -0.032,-0.4 -0.077,-0.644 -0.051,-0.243 -0.112,-0.493 -0.189,-0.75 -0.077,-0.256 -0.154,-0.471 -0.23,-0.644 h -0.414 c -0.038,0.257 -0.093,0.475 -0.163,0.654 -0.071,0.179 -0.154,0.32 -0.247,0.426 -0.093,0.106 -0.196,0.183 -0.308,0.231 -0.112,0.048 -0.227,0.074 -0.349,0.074 -0.141,0 -0.308,-0.061 -0.497,-0.18 -0.189,-0.118 -0.381,-0.304 -0.58,-0.557 -0.199,-0.254 -0.397,-0.577 -0.593,-0.972 -0.195,-0.394 -0.368,-0.862 -0.522,-1.406 v -3.769 c 0,-0.097 0.118,-0.196 0.362,-0.298 0.237,-0.103 0.66,-0.199 1.263,-0.289 v -0.413 h -4.413 v 0.413 c 0.423,0.096 0.753,0.189 0.99,0.282 0.237,0.093 0.356,0.196 0.356,0.305 v 5.595 c 0,0.212 -0.007,0.388 -0.02,0.532 -0.012,0.145 -0.028,0.263 -0.048,0.353 -0.019,0.09 -0.045,0.16 -0.07,0.211 -0.032,0.052 -0.058,0.093 -0.084,0.125 -0.044,0.045 -0.096,0.081 -0.147,0.109 -0.058,0.029 -0.128,0.055 -0.212,0.074 -0.089,0.019 -0.192,0.032 -0.314,0.042 -0.121,0.009 -0.272,0.022 -0.451,0.035 v 0.385 c 0.416,0.109 0.823,0.218 1.227,0.33 0.397,0.112 0.76,0.259 1.08,0.439 l 0.337,-0.337 0.125,-2.182 c 0.173,0.352 0.362,0.682 0.56,0.99 0.206,0.308 0.42,0.574 0.651,0.801 0.231,0.228 0.471,0.407 0.727,0.535 0.25,0.129 0.516,0.193 0.792,0.193 0.205,0 0.426,-0.026 0.664,-0.077 C -0.474,0.228 -0.237,0.135 0,0"
             style="fill:currentColor;fill-opacity:1;fill-rule:nonzero;stroke:none"
             id="path168" />
        </g>
        <g
           id="g170"
           transform="translate(143.5858,58.3185)">
          <path
             d="M 0,0 V 0.413 C 0.462,0.535 0.801,0.641 1.019,0.731 1.237,0.82 1.346,0.91 1.346,1 V 6.086 C 1.346,6.477 1.324,6.794 1.279,7.038 1.234,7.282 1.163,7.474 1.067,7.615 0.971,7.756 0.843,7.852 0.686,7.903 0.529,7.955 0.34,7.98 0.115,7.98 -0.083,7.98 -0.304,7.932 -0.548,7.836 -0.792,7.74 -1.051,7.586 -1.333,7.374 -1.609,7.163 -1.904,6.884 -2.205,6.541 -2.513,6.198 -2.817,5.778 -3.125,5.278 V 1 c 0,-0.096 0.119,-0.196 0.362,-0.298 0.238,-0.103 0.568,-0.199 0.984,-0.289 V 0 h -4.134 v 0.413 c 0.423,0.109 0.753,0.206 0.99,0.292 0.237,0.087 0.356,0.186 0.356,0.295 v 5.836 c 0,0.25 -0.01,0.449 -0.029,0.596 -0.019,0.148 -0.07,0.263 -0.16,0.346 -0.083,0.084 -0.218,0.144 -0.397,0.183 -0.18,0.038 -0.433,0.077 -0.76,0.115 v 0.385 c 0.436,0.07 0.84,0.17 1.211,0.301 0.372,0.132 0.738,0.289 1.097,0.468 L -3.269,8.894 -3.163,6.5 c 0.282,0.429 0.593,0.81 0.932,1.147 0.34,0.336 0.683,0.622 1.029,0.856 0.346,0.234 0.68,0.413 1.003,0.538 C 0.125,9.166 0.413,9.23 0.663,9.23 0.939,9.23 1.205,9.188 1.461,9.105 1.718,9.022 1.942,8.894 2.141,8.721 2.333,8.547 2.49,8.326 2.609,8.06 2.727,7.794 2.788,7.483 2.788,7.124 V 1 C 2.788,0.91 2.884,0.82 3.083,0.734 3.275,0.647 3.628,0.542 4.134,0.413 V 0 Z"
             style="fill:currentColor;fill-opacity:1;fill-rule:nonzero;stroke:none"
             id="path172" />
        </g>
        <g
           id="g174"
           transform="translate(155.1554,62.2412)">
          <path
             d="M 0,0 C 0,0.641 -0.067,1.208 -0.195,1.705 -0.33,2.202 -0.503,2.622 -0.728,2.961 -0.945,3.301 -1.202,3.561 -1.49,3.74 -1.779,3.92 -2.077,4.009 -2.384,4.009 -2.5,4.009 -2.654,3.974 -2.843,3.907 -3.032,3.839 -3.243,3.727 -3.48,3.57 -3.718,3.413 -3.971,3.202 -4.24,2.936 -4.509,2.67 -4.778,2.34 -5.048,1.942 v -3.913 c 0.257,-0.192 0.516,-0.353 0.782,-0.481 0.266,-0.128 0.519,-0.23 0.763,-0.304 0.237,-0.074 0.455,-0.125 0.654,-0.157 0.192,-0.032 0.349,-0.048 0.465,-0.048 0.391,0 0.733,0.083 1.028,0.253 0.295,0.17 0.545,0.394 0.744,0.673 0.205,0.279 0.356,0.596 0.458,0.949 C -0.051,-0.734 0,-0.372 0,0 M 1.298,0.808 C 1.298,0.436 1.25,0.054 1.154,-0.337 1.058,-0.728 0.917,-1.109 0.731,-1.481 0.545,-1.852 0.317,-2.205 0.048,-2.538 -0.221,-2.872 -0.529,-3.163 -0.869,-3.41 -1.215,-3.657 -1.59,-3.852 -2,-3.996 c -0.41,-0.145 -0.852,-0.215 -1.327,-0.215 -0.121,0 -0.291,0.025 -0.503,0.08 -0.218,0.054 -0.461,0.135 -0.743,0.237 -0.276,0.103 -0.58,0.228 -0.907,0.378 -0.327,0.151 -0.664,0.324 -1.01,0.516 V 8.538 C -6.49,8.833 -6.506,9.06 -6.538,9.22 -6.57,9.381 -6.631,9.499 -6.721,9.579 -6.81,9.66 -6.939,9.714 -7.099,9.74 -7.265,9.765 -7.477,9.794 -7.74,9.826 v 0.385 c 0.423,0.102 0.827,0.205 1.212,0.311 0.384,0.105 0.759,0.259 1.125,0.458 l 0.096,-0.096 c 0.038,-0.039 0.077,-0.074 0.115,-0.106 0.045,-0.038 0.093,-0.08 0.144,-0.125 V 3.067 c 0.321,0.385 0.641,0.718 0.955,1 0.321,0.282 0.622,0.513 0.917,0.695 0.288,0.183 0.561,0.321 0.811,0.411 0.25,0.089 0.468,0.134 0.654,0.134 0.435,0 0.836,-0.102 1.208,-0.307 C -0.138,4.795 0.179,4.496 0.445,4.109 0.711,3.721 0.92,3.25 1.074,2.692 1.221,2.134 1.298,1.506 1.298,0.808"
             style="fill:currentColor;fill-opacity:1;fill-rule:nonzero;stroke:none"
             id="path176" />
        </g>
        <g
           id="g178"
           transform="translate(161.6934,66.539)">
          <path
             d="M 0,0 C -0.333,0 -0.641,-0.064 -0.917,-0.192 -1.199,-0.32 -1.445,-0.503 -1.66,-0.737 -1.875,-0.971 -2.051,-1.25 -2.199,-1.574 -2.34,-1.897 -2.442,-2.253 -2.5,-2.644 h 4.115 c 0.148,0 0.244,0.022 0.295,0.07 0.045,0.049 0.071,0.141 0.071,0.276 0,0.173 -0.026,0.388 -0.071,0.647 -0.051,0.26 -0.147,0.513 -0.288,0.76 C 1.474,-0.644 1.276,-0.433 1.013,-0.26 0.756,-0.087 0.417,0 0,0 M 3.557,-2.865 C 3.442,-2.993 3.288,-3.112 3.096,-3.221 2.904,-3.33 2.705,-3.426 2.5,-3.509 h -5.058 c 0.007,-0.5 0.074,-0.978 0.206,-1.43 0.131,-0.452 0.32,-0.849 0.57,-1.192 0.244,-0.343 0.542,-0.615 0.891,-0.82 0.349,-0.206 0.744,-0.308 1.179,-0.308 0.199,0 0.391,0.013 0.584,0.038 0.186,0.026 0.391,0.084 0.609,0.173 0.218,0.09 0.458,0.222 0.724,0.395 0.266,0.173 0.58,0.407 0.939,0.702 C 3.227,-5.996 3.298,-6.06 3.359,-6.144 3.42,-6.227 3.468,-6.294 3.5,-6.346 3.07,-6.814 2.692,-7.192 2.372,-7.477 2.045,-7.762 1.74,-7.98 1.455,-8.134 1.17,-8.288 0.891,-8.39 0.609,-8.438 0.333,-8.487 0.029,-8.509 -0.298,-8.509 c -0.494,0 -0.965,0.106 -1.407,0.317 -0.449,0.212 -0.84,0.51 -1.179,0.898 -0.34,0.387 -0.609,0.855 -0.814,1.403 C -3.897,-5.343 -4,-4.727 -4,-4.048 c 0,0.43 0.048,0.853 0.145,1.269 0.096,0.417 0.233,0.811 0.419,1.183 0.18,0.372 0.404,0.715 0.667,1.029 0.263,0.314 0.561,0.586 0.894,0.817 0.141,0.096 0.298,0.189 0.478,0.282 0.173,0.093 0.359,0.176 0.551,0.247 0.192,0.07 0.381,0.125 0.57,0.166 C -0.087,0.987 0.096,1.01 0.269,1.01 0.686,1.01 1.058,0.952 1.385,0.836 1.711,0.721 1.997,0.564 2.24,0.369 2.484,0.173 2.689,-0.054 2.856,-0.314 3.022,-0.574 3.16,-0.846 3.263,-1.135 3.372,-1.423 3.445,-1.718 3.49,-2.016 3.535,-2.314 3.557,-2.596 3.557,-2.865"
             style="fill:currentColor;fill-opacity:1;fill-rule:nonzero;stroke:none"
             id="path180" />
        </g>
        <g
           id="g182"
           transform="translate(173.0291,67.1928)">
          <path
             d="m 0,0 c 0.058,-0.038 0.083,-0.151 0.083,-0.337 -0.006,-0.185 -0.032,-0.4 -0.077,-0.644 -0.051,-0.243 -0.112,-0.493 -0.189,-0.75 -0.077,-0.256 -0.154,-0.471 -0.23,-0.644 h -0.414 c -0.038,0.257 -0.093,0.475 -0.163,0.654 -0.071,0.179 -0.154,0.32 -0.247,0.426 -0.093,0.106 -0.196,0.183 -0.308,0.231 -0.112,0.048 -0.227,0.074 -0.349,0.074 -0.141,0 -0.308,-0.061 -0.497,-0.18 -0.189,-0.118 -0.381,-0.304 -0.58,-0.557 -0.199,-0.254 -0.397,-0.577 -0.593,-0.972 -0.195,-0.394 -0.368,-0.862 -0.522,-1.406 v -3.769 c 0,-0.097 0.118,-0.196 0.362,-0.298 0.237,-0.103 0.66,-0.199 1.263,-0.289 v -0.413 h -4.413 v 0.413 c 0.423,0.096 0.753,0.189 0.99,0.282 0.237,0.093 0.356,0.196 0.356,0.305 v 5.595 c 0,0.212 -0.007,0.388 -0.02,0.532 -0.012,0.145 -0.029,0.263 -0.048,0.353 -0.019,0.09 -0.045,0.16 -0.07,0.211 -0.032,0.052 -0.058,0.093 -0.084,0.125 -0.044,0.045 -0.096,0.081 -0.147,0.109 -0.058,0.029 -0.128,0.055 -0.212,0.074 -0.089,0.019 -0.192,0.032 -0.314,0.042 -0.121,0.009 -0.272,0.022 -0.451,0.035 v 0.385 c 0.416,0.109 0.823,0.218 1.227,0.33 0.397,0.112 0.76,0.259 1.08,0.439 l 0.337,-0.337 0.125,-2.182 c 0.173,0.352 0.362,0.682 0.56,0.99 0.206,0.308 0.42,0.574 0.651,0.801 0.231,0.228 0.471,0.407 0.727,0.535 0.25,0.129 0.516,0.193 0.792,0.193 0.205,0 0.426,-0.026 0.664,-0.077 C -0.474,0.228 -0.237,0.135 0,0"
             style="fill:currentColor;fill-opacity:1;fill-rule:nonzero;stroke:none"
             id="path184" />
        </g>
        <g
           id="g186"
           transform="translate(179.6055,64.0873)">
          <path
             d="m 0,0 c 0,0.34 -0.058,0.66 -0.167,0.965 -0.115,0.304 -0.282,0.57 -0.5,0.798 C -0.891,1.99 -1.167,2.17 -1.493,2.301 -1.827,2.433 -2.205,2.5 -2.634,2.5 -2.795,2.5 -2.974,2.458 -3.166,2.375 -3.365,2.291 -3.548,2.17 -3.721,2.009 -3.894,1.849 -4.038,1.647 -4.154,1.404 -4.269,1.16 -4.327,0.881 -4.327,0.567 c 0,-0.339 0.052,-0.663 0.161,-0.968 0.102,-0.304 0.262,-0.567 0.48,-0.791 0.212,-0.225 0.484,-0.404 0.814,-0.535 0.331,-0.132 0.725,-0.196 1.18,-0.196 0.186,0 0.378,0.039 0.583,0.119 0.199,0.08 0.385,0.202 0.545,0.365 0.167,0.163 0.301,0.365 0.404,0.603 C -0.051,-0.599 0,-0.32 0,0 m -1.654,-5.807 c -0.243,0.025 -0.468,0.054 -0.673,0.086 -0.205,0.032 -0.397,0.068 -0.577,0.106 -0.461,-0.25 -0.826,-0.474 -1.089,-0.673 -0.269,-0.199 -0.468,-0.378 -0.603,-0.535 -0.134,-0.157 -0.221,-0.298 -0.256,-0.426 -0.035,-0.129 -0.051,-0.244 -0.051,-0.347 0,-0.269 0.089,-0.525 0.269,-0.766 0.179,-0.24 0.42,-0.448 0.721,-0.625 0.301,-0.176 0.65,-0.317 1.048,-0.423 0.397,-0.105 0.814,-0.157 1.25,-0.157 0.429,0 0.82,0.058 1.173,0.173 0.352,0.116 0.654,0.273 0.904,0.475 0.249,0.202 0.442,0.442 0.583,0.721 0.134,0.279 0.205,0.586 0.205,0.92 0,0.179 -0.042,0.343 -0.125,0.493 -0.083,0.151 -0.234,0.289 -0.452,0.41 -0.218,0.122 -0.513,0.231 -0.891,0.327 -0.372,0.097 -0.852,0.177 -1.436,0.241 m 3,6.201 C 1.346,-0.099 1.237,-0.551 1.013,-0.958 0.795,-1.365 0.503,-1.715 0.144,-2.006 -0.215,-2.298 -0.622,-2.525 -1.077,-2.689 -1.532,-2.852 -1.993,-2.932 -2.461,-2.932 H -2.5 c -0.307,-0.257 -0.519,-0.472 -0.634,-0.641 -0.116,-0.17 -0.173,-0.273 -0.173,-0.311 0,-0.077 0.032,-0.154 0.102,-0.228 0.064,-0.074 0.192,-0.144 0.372,-0.211 0.186,-0.068 0.436,-0.135 0.756,-0.202 0.321,-0.068 0.731,-0.129 1.231,-0.186 0.699,-0.077 1.275,-0.192 1.731,-0.346 C 1.34,-5.211 1.702,-5.391 1.971,-5.593 2.24,-5.794 2.429,-6.009 2.532,-6.24 2.641,-6.471 2.692,-6.698 2.692,-6.923 2.692,-7.275 2.625,-7.612 2.49,-7.929 2.356,-8.246 2.173,-8.538 1.942,-8.807 1.711,-9.076 1.439,-9.32 1.125,-9.538 0.811,-9.756 0.474,-9.942 0.115,-10.095 c -0.359,-0.154 -0.73,-0.273 -1.115,-0.356 -0.385,-0.083 -0.766,-0.125 -1.144,-0.125 -0.301,0 -0.612,0.019 -0.933,0.061 -0.32,0.041 -0.637,0.109 -0.952,0.198 -0.314,0.09 -0.612,0.202 -0.887,0.34 -0.282,0.138 -0.526,0.305 -0.737,0.5 -0.212,0.196 -0.379,0.417 -0.507,0.664 -0.122,0.246 -0.186,0.528 -0.186,0.842 0,0.167 0.029,0.34 0.09,0.523 0.061,0.183 0.186,0.381 0.372,0.593 0.186,0.211 0.445,0.439 0.779,0.682 0.333,0.244 0.775,0.513 1.326,0.808 -0.416,0.147 -0.705,0.314 -0.865,0.5 -0.16,0.186 -0.24,0.375 -0.24,0.567 0,0.052 0.016,0.119 0.048,0.205 0.032,0.087 0.096,0.193 0.195,0.318 0.1,0.125 0.244,0.269 0.423,0.429 0.186,0.16 0.423,0.343 0.718,0.548 -0.327,0.09 -0.625,0.218 -0.891,0.388 -0.266,0.17 -0.493,0.375 -0.679,0.615 -0.192,0.241 -0.34,0.513 -0.442,0.818 -0.109,0.304 -0.161,0.637 -0.161,0.996 0,0.468 0.106,0.91 0.318,1.33 0.211,0.42 0.49,0.785 0.836,1.096 0.346,0.311 0.74,0.558 1.183,0.741 0.442,0.182 0.897,0.275 1.365,0.275 0.385,0 0.747,-0.054 1.08,-0.163 0.34,-0.109 0.644,-0.263 0.92,-0.462 C 0.362,2.868 0.663,2.91 0.933,2.961 1.202,3.013 1.442,3.067 1.66,3.125 1.872,3.182 2.064,3.24 2.231,3.298 2.397,3.356 2.548,3.41 2.682,3.461 L 2.875,3.173 C 2.798,2.993 2.724,2.827 2.654,2.676 2.583,2.525 2.474,2.372 2.327,2.211 2.083,2.167 1.843,2.131 1.609,2.106 1.375,2.08 1.112,2.061 0.817,2.048 0.984,1.804 1.112,1.545 1.205,1.269 1.298,0.994 1.346,0.702 1.346,0.394"
             style="fill:currentColor;fill-opacity:1;fill-rule:nonzero;stroke:none"
             id="path188" />
        </g>
        <g
           id="g190"
           transform="translate(194.2006,63.4623)">
          <path
             d="M 0,0 -1.692,4.942 -3.336,0 Z m -3.625,-0.865 -1.067,-3.212 c -0.064,-0.198 0.022,-0.343 0.26,-0.432 0.237,-0.09 0.618,-0.164 1.144,-0.221 v -0.414 h -4 v 0.414 c 0.436,0.076 0.782,0.157 1.038,0.24 0.257,0.083 0.417,0.221 0.481,0.413 l 3.577,10.826 c 0.147,0.161 0.33,0.305 0.548,0.436 0.218,0.132 0.41,0.244 0.577,0.334 L 2.971,-4.077 C 3.003,-4.166 3.048,-4.246 3.106,-4.317 3.163,-4.387 3.24,-4.448 3.336,-4.5 3.432,-4.551 3.554,-4.596 3.702,-4.634 3.849,-4.673 4.025,-4.705 4.23,-4.73 V -5.144 H 0.173 v 0.414 c 0.5,0.032 0.846,0.096 1.038,0.192 0.193,0.096 0.254,0.25 0.183,0.461 l -1.096,3.212 z"
             style="fill:currentColor;fill-opacity:1;fill-rule:nonzero;stroke:none"
             id="path192" />
        </g>
        <g
           id="g194"
           transform="translate(204.7703,61.0394)">
          <path
             d="m 0,0 c 0,-0.455 -0.064,-0.846 -0.192,-1.17 -0.128,-0.323 -0.295,-0.596 -0.5,-0.82 -0.205,-0.225 -0.433,-0.404 -0.683,-0.539 -0.25,-0.134 -0.497,-0.237 -0.74,-0.307 C -2.359,-2.907 -2.59,-2.955 -2.801,-2.977 -3.019,-3 -3.186,-3.009 -3.307,-3.009 c -0.308,0 -0.68,0.057 -1.109,0.173 -0.436,0.115 -0.866,0.291 -1.295,0.528 -0.045,0.02 -0.077,0.122 -0.09,0.311 -0.019,0.189 -0.019,0.407 -0.013,0.654 0.013,0.247 0.032,0.497 0.058,0.747 0.032,0.25 0.067,0.449 0.112,0.596 l 0.414,-0.106 c 0.012,-0.269 0.083,-0.522 0.211,-0.759 0.128,-0.237 0.298,-0.443 0.513,-0.616 0.215,-0.173 0.465,-0.311 0.75,-0.413 0.285,-0.103 0.596,-0.154 0.929,-0.154 0.231,0 0.443,0.035 0.635,0.109 0.192,0.074 0.359,0.176 0.5,0.308 0.141,0.131 0.25,0.291 0.327,0.477 0.077,0.186 0.115,0.391 0.115,0.616 0,0.256 -0.07,0.484 -0.205,0.682 -0.141,0.199 -0.32,0.378 -0.545,0.542 -0.224,0.163 -0.481,0.317 -0.763,0.461 -0.288,0.145 -0.576,0.295 -0.871,0.449 -0.27,0.135 -0.529,0.279 -0.779,0.433 -0.25,0.154 -0.474,0.327 -0.67,0.519 -0.195,0.192 -0.352,0.407 -0.468,0.644 -0.122,0.237 -0.179,0.51 -0.179,0.817 0,0.398 0.08,0.75 0.24,1.061 0.16,0.311 0.372,0.574 0.638,0.785 0.266,0.212 0.57,0.372 0.916,0.484 0.34,0.112 0.696,0.17 1.061,0.17 0.199,0 0.42,-0.019 0.657,-0.054 0.244,-0.036 0.478,-0.084 0.712,-0.148 0.234,-0.064 0.455,-0.141 0.66,-0.231 0.205,-0.089 0.372,-0.192 0.5,-0.307 C -0.308,5.73 -0.301,5.644 -0.333,5.509 -0.359,5.375 -0.407,5.227 -0.468,5.067 -0.529,4.907 -0.593,4.756 -0.663,4.615 -0.734,4.474 -0.788,4.378 -0.827,4.327 L -1.202,4.404 C -1.509,4.865 -1.83,5.186 -2.16,5.368 -2.49,5.551 -2.811,5.644 -3.125,5.644 -3.336,5.644 -3.525,5.609 -3.692,5.538 -3.859,5.468 -4.003,5.375 -4.121,5.262 -4.24,5.15 -4.33,5.028 -4.391,4.894 -4.452,4.759 -4.48,4.625 -4.48,4.49 -4.48,4.285 -4.42,4.099 -4.298,3.936 -4.176,3.772 -4.016,3.618 -3.817,3.474 -3.618,3.33 -3.394,3.192 -3.141,3.061 -2.888,2.929 -2.625,2.795 -2.356,2.654 -2.08,2.513 -1.801,2.362 -1.519,2.202 -1.237,2.042 -0.984,1.856 -0.76,1.647 -0.535,1.439 -0.353,1.202 -0.212,0.936 -0.07,0.67 0,0.359 0,0"
             style="fill:currentColor;fill-opacity:1;fill-rule:nonzero;stroke:none"
             id="path196" />
        </g>
        <g
           id="g198"
           transform="translate(211.8851,61.0394)">
          <path
             d="m 0,0 c 0,-0.455 -0.064,-0.846 -0.192,-1.17 -0.128,-0.323 -0.295,-0.596 -0.5,-0.82 -0.205,-0.225 -0.433,-0.404 -0.683,-0.539 -0.25,-0.134 -0.497,-0.237 -0.74,-0.307 C -2.359,-2.907 -2.59,-2.955 -2.801,-2.977 -3.019,-3 -3.186,-3.009 -3.307,-3.009 c -0.308,0 -0.68,0.057 -1.109,0.173 -0.436,0.115 -0.866,0.291 -1.295,0.528 -0.045,0.02 -0.077,0.122 -0.09,0.311 -0.019,0.189 -0.019,0.407 -0.013,0.654 0.013,0.247 0.032,0.497 0.058,0.747 0.032,0.25 0.067,0.449 0.112,0.596 l 0.414,-0.106 c 0.012,-0.269 0.083,-0.522 0.211,-0.759 0.128,-0.237 0.298,-0.443 0.513,-0.616 0.215,-0.173 0.465,-0.311 0.75,-0.413 0.285,-0.103 0.596,-0.154 0.929,-0.154 0.231,0 0.443,0.035 0.635,0.109 0.192,0.074 0.359,0.176 0.5,0.308 0.141,0.131 0.25,0.291 0.327,0.477 0.077,0.186 0.115,0.391 0.115,0.616 0,0.256 -0.07,0.484 -0.205,0.682 -0.141,0.199 -0.32,0.378 -0.545,0.542 -0.224,0.163 -0.481,0.317 -0.763,0.461 -0.288,0.145 -0.576,0.295 -0.871,0.449 -0.27,0.135 -0.529,0.279 -0.779,0.433 -0.25,0.154 -0.474,0.327 -0.67,0.519 -0.195,0.192 -0.352,0.407 -0.468,0.644 -0.122,0.237 -0.179,0.51 -0.179,0.817 0,0.398 0.08,0.75 0.24,1.061 0.16,0.311 0.372,0.574 0.638,0.785 0.266,0.212 0.57,0.372 0.916,0.484 0.34,0.112 0.696,0.17 1.061,0.17 0.199,0 0.42,-0.019 0.657,-0.054 0.244,-0.036 0.478,-0.084 0.712,-0.148 0.234,-0.064 0.455,-0.141 0.66,-0.231 0.205,-0.089 0.372,-0.192 0.5,-0.307 C -0.308,5.73 -0.301,5.644 -0.333,5.509 -0.359,5.375 -0.407,5.227 -0.468,5.067 -0.529,4.907 -0.593,4.756 -0.663,4.615 -0.734,4.474 -0.788,4.378 -0.827,4.327 L -1.202,4.404 C -1.509,4.865 -1.83,5.186 -2.16,5.368 -2.49,5.551 -2.811,5.644 -3.125,5.644 -3.336,5.644 -3.525,5.609 -3.692,5.538 -3.859,5.468 -4.003,5.375 -4.121,5.262 -4.24,5.15 -4.33,5.028 -4.391,4.894 -4.452,4.759 -4.48,4.625 -4.48,4.49 -4.48,4.285 -4.42,4.099 -4.298,3.936 -4.176,3.772 -4.016,3.618 -3.817,3.474 -3.618,3.33 -3.394,3.192 -3.141,3.061 -2.888,2.929 -2.625,2.795 -2.356,2.654 -2.08,2.513 -1.801,2.362 -1.519,2.202 -1.237,2.042 -0.984,1.856 -0.76,1.647 -0.535,1.439 -0.353,1.202 -0.212,0.936 -0.071,0.67 0,0.359 0,0"
             style="fill:currentColor;fill-opacity:1;fill-rule:nonzero;stroke:none"
             id="path200" />
        </g>
        <g
           id="g202"
           transform="translate(219.814,62.6931)">
          <path
             d="M 0,0 C 0,0.506 -0.083,0.987 -0.25,1.445 -0.417,1.904 -0.631,2.308 -0.894,2.657 -1.157,3.006 -1.455,3.285 -1.788,3.49 -2.122,3.695 -2.452,3.798 -2.779,3.798 -3.266,3.798 -3.676,3.705 -4.009,3.519 -4.343,3.333 -4.612,3.077 -4.811,2.753 -5.016,2.429 -5.16,2.048 -5.25,1.606 -5.339,1.163 -5.384,0.686 -5.384,0.173 c 0,-0.506 0.09,-0.99 0.269,-1.449 0.179,-0.458 0.404,-0.858 0.676,-1.205 0.273,-0.346 0.574,-0.621 0.901,-0.823 0.327,-0.202 0.638,-0.301 0.932,-0.301 0.456,0 0.847,0.083 1.173,0.253 0.327,0.17 0.597,0.413 0.808,0.727 0.212,0.314 0.369,0.692 0.471,1.135 C -0.051,-1.048 0,-0.551 0,0 M 1.49,0.288 C 1.49,-0.141 1.436,-0.561 1.327,-0.971 1.218,-1.381 1.067,-1.769 0.875,-2.134 0.683,-2.5 0.452,-2.84 0.183,-3.15 c -0.27,-0.311 -0.568,-0.577 -0.891,-0.802 -0.324,-0.224 -0.667,-0.4 -1.032,-0.525 -0.366,-0.125 -0.744,-0.186 -1.135,-0.186 -0.609,0 -1.16,0.115 -1.647,0.346 -0.494,0.231 -0.913,0.548 -1.263,0.952 -0.349,0.404 -0.618,0.884 -0.807,1.442 -0.19,0.558 -0.282,1.163 -0.282,1.817 0,0.423 0.051,0.84 0.16,1.25 0.102,0.41 0.25,0.798 0.442,1.167 0.186,0.368 0.413,0.708 0.679,1.019 0.266,0.311 0.561,0.58 0.885,0.804 0.324,0.225 0.673,0.401 1.051,0.529 0.372,0.128 0.76,0.192 1.157,0.192 0.603,0 1.151,-0.115 1.638,-0.346 C -0.369,4.279 0.048,3.958 0.401,3.551 0.747,3.144 1.016,2.663 1.208,2.106 1.394,1.548 1.49,0.942 1.49,0.288"
             style="fill:currentColor;fill-opacity:1;fill-rule:nonzero;stroke:none"
             id="path204" />
        </g>
        <g
           id="g206"
           transform="translate(229.8517,60.1452)">
          <path
             d="m 0,0 c -0.417,-0.494 -0.782,-0.881 -1.102,-1.16 -0.315,-0.279 -0.609,-0.491 -0.879,-0.635 -0.269,-0.144 -0.532,-0.234 -0.788,-0.269 -0.256,-0.035 -0.535,-0.051 -0.836,-0.051 -0.468,0 -0.927,0.102 -1.369,0.311 -0.449,0.208 -0.843,0.509 -1.189,0.9 -0.346,0.391 -0.625,0.869 -0.83,1.433 -0.212,0.564 -0.314,1.202 -0.314,1.913 0,0.692 0.125,1.34 0.378,1.942 0.253,0.603 0.599,1.125 1.038,1.571 0.439,0.445 0.959,0.798 1.555,1.057 0.596,0.26 1.24,0.391 1.932,0.391 0.212,0 0.43,-0.019 0.648,-0.054 0.224,-0.035 0.436,-0.087 0.634,-0.154 0.205,-0.067 0.388,-0.147 0.558,-0.24 0.17,-0.093 0.311,-0.196 0.42,-0.311 C -0.131,6.567 -0.141,6.458 -0.173,6.317 -0.205,6.176 -0.25,6.025 -0.308,5.868 -0.365,5.711 -0.429,5.56 -0.5,5.416 -0.57,5.272 -0.635,5.157 -0.692,5.067 l -0.356,0.096 c -0.051,0.115 -0.135,0.24 -0.25,0.375 -0.115,0.135 -0.266,0.263 -0.445,0.385 -0.186,0.121 -0.404,0.221 -0.654,0.301 -0.257,0.08 -0.545,0.122 -0.872,0.122 -0.34,0 -0.667,-0.077 -0.974,-0.228 C -4.557,5.967 -4.833,5.743 -5.07,5.442 -5.314,5.141 -5.506,4.766 -5.647,4.317 -5.794,3.868 -5.865,3.343 -5.865,2.74 c 0,-0.545 0.083,-1.041 0.244,-1.487 0.166,-0.445 0.381,-0.824 0.653,-1.138 0.273,-0.314 0.59,-0.557 0.943,-0.727 0.359,-0.17 0.727,-0.253 1.112,-0.253 0.179,0 0.346,0.006 0.5,0.022 0.154,0.016 0.323,0.067 0.503,0.151 0.186,0.083 0.397,0.208 0.634,0.375 0.244,0.166 0.542,0.404 0.901,0.711 z"
             style="fill:currentColor;fill-opacity:1;fill-rule:nonzero;stroke:none"
             id="path208" />
        </g>
        <g
           id="g210"
           transform="translate(233.9348,70.4426)">
          <path
             d="m 0,0 c 0,-0.179 -0.029,-0.349 -0.087,-0.51 -0.057,-0.16 -0.137,-0.301 -0.233,-0.419 -0.103,-0.119 -0.218,-0.212 -0.353,-0.282 -0.135,-0.071 -0.282,-0.106 -0.442,-0.106 -0.289,0 -0.494,0.08 -0.622,0.24 -0.122,0.16 -0.186,0.388 -0.186,0.683 0,0.179 0.029,0.349 0.087,0.509 0.057,0.161 0.137,0.298 0.24,0.417 0.103,0.119 0.218,0.212 0.353,0.279 0.128,0.067 0.272,0.102 0.426,0.102 C -0.272,0.913 0,0.609 0,0 m -3.077,-12.124 v 0.413 c 0.436,0.09 0.769,0.186 1,0.292 0.231,0.106 0.346,0.205 0.346,0.295 v 5.442 c 0,0.327 -0.006,0.589 -0.019,0.791 -0.013,0.202 -0.061,0.359 -0.144,0.471 -0.083,0.113 -0.215,0.196 -0.401,0.247 -0.179,0.052 -0.442,0.093 -0.782,0.125 v 0.385 c 0.199,0.038 0.411,0.083 0.628,0.138 0.225,0.054 0.443,0.115 0.661,0.182 0.218,0.068 0.426,0.141 0.625,0.218 0.198,0.077 0.381,0.154 0.548,0.231 h 0.327 v -8.23 c 0,-0.077 0.105,-0.173 0.32,-0.285 0.215,-0.113 0.558,-0.212 1.026,-0.302 v -0.413 z"
             style="fill:currentColor;fill-opacity:1;fill-rule:nonzero;stroke:none"
             id="path212" />
        </g>
        <g
           id="g214"
           transform="translate(238.6107,59.2799)">
          <path
             d="M 0,0 C 0.385,0 0.795,0.096 1.224,0.292 1.66,0.487 2.118,0.798 2.606,1.221 v 2.49 C 2.067,3.622 1.622,3.535 1.276,3.452 0.923,3.368 0.638,3.282 0.413,3.195 0.189,3.109 0.01,3.019 -0.125,2.923 -0.26,2.827 -0.378,2.724 -0.481,2.615 -0.647,2.442 -0.782,2.243 -0.885,2.022 -0.987,1.801 -1.038,1.542 -1.038,1.24 -1.038,0.984 -1,0.776 -0.923,0.615 -0.846,0.455 -0.753,0.327 -0.644,0.234 -0.535,0.141 -0.423,0.08 -0.301,0.048 -0.186,0.016 -0.083,0 0,0 M 5.519,-0.173 C 4.974,-0.551 4.525,-0.827 4.166,-0.997 3.814,-1.167 3.545,-1.25 3.365,-1.25 3.154,-1.25 2.977,-1.102 2.836,-0.808 2.695,-0.513 2.618,-0.106 2.606,0.413 2.317,0.125 2.029,-0.125 1.74,-0.337 1.452,-0.548 1.17,-0.721 0.894,-0.856 0.619,-0.99 0.356,-1.09 0.109,-1.154 -0.138,-1.218 -0.362,-1.25 -0.567,-1.25 c -0.231,0 -0.468,0.039 -0.712,0.115 -0.243,0.077 -0.464,0.199 -0.657,0.366 -0.198,0.166 -0.359,0.381 -0.487,0.644 -0.128,0.263 -0.192,0.58 -0.192,0.952 0,0.487 0.083,0.894 0.256,1.221 0.167,0.327 0.372,0.609 0.609,0.846 0.154,0.154 0.327,0.298 0.526,0.436 0.192,0.138 0.452,0.272 0.775,0.4 0.324,0.129 0.731,0.25 1.218,0.366 0.487,0.115 1.099,0.227 1.837,0.336 V 5.788 C 2.606,6.006 2.58,6.208 2.529,6.397 2.477,6.586 2.391,6.749 2.269,6.887 2.147,7.025 1.981,7.131 1.776,7.205 1.564,7.278 1.304,7.314 0.99,7.307 0.785,7.301 0.583,7.265 0.385,7.201 0.186,7.137 0.013,7.048 -0.135,6.932 -0.282,6.817 -0.397,6.679 -0.481,6.522 -0.564,6.365 -0.596,6.192 -0.577,6 -0.57,5.942 -0.638,5.875 -0.776,5.801 -0.913,5.727 -1.077,5.663 -1.263,5.605 -1.455,5.548 -1.641,5.503 -1.82,5.471 -2.006,5.439 -2.134,5.432 -2.211,5.452 l -0.135,0.374 c 0.147,0.321 0.372,0.629 0.673,0.923 0.301,0.295 0.644,0.555 1.032,0.779 0.388,0.225 0.801,0.404 1.231,0.539 0.436,0.134 0.852,0.202 1.256,0.202 0.705,0 1.247,-0.186 1.628,-0.555 C 3.855,7.346 4.048,6.833 4.048,6.173 V 0.75 C 4.048,0.481 4.083,0.288 4.154,0.173 4.224,0.058 4.317,0 4.432,0 4.522,0 4.637,0.016 4.778,0.048 4.92,0.08 5.118,0.151 5.375,0.26 Z"
             style="fill:currentColor;fill-opacity:1;fill-rule:nonzero;stroke:none"
             id="path216" />
        </g>
        <g
           id="g218"
           transform="translate(250.1707,59.4434)">
          <path
             d="m 0,0 c -0.314,-0.231 -0.625,-0.436 -0.933,-0.612 -0.307,-0.176 -0.599,-0.324 -0.881,-0.442 -0.276,-0.119 -0.535,-0.209 -0.772,-0.27 -0.238,-0.061 -0.439,-0.089 -0.606,-0.089 -0.224,0 -0.436,0.041 -0.641,0.125 -0.199,0.083 -0.378,0.218 -0.532,0.407 -0.154,0.189 -0.276,0.439 -0.365,0.746 C -4.82,0.173 -4.865,0.551 -4.865,1 v 5.903 h -1.24 l -0.202,0.27 0.75,0.644 h 0.692 v 2.365 l 1.144,1 0.298,-0.241 V 7.817 h 3.144 L 0,7.538 C -0.058,7.448 -0.128,7.352 -0.218,7.249 -0.301,7.147 -0.391,7.051 -0.481,6.961 -0.57,6.871 -0.66,6.788 -0.744,6.714 -0.833,6.641 -0.907,6.592 -0.971,6.567 c -0.154,0.077 -0.388,0.15 -0.702,0.224 -0.314,0.074 -0.731,0.112 -1.25,0.112 h -0.5 V 1.827 c 0,-0.385 0.016,-0.705 0.051,-0.962 0.036,-0.256 0.097,-0.461 0.18,-0.612 0.083,-0.15 0.189,-0.256 0.32,-0.32 0.132,-0.064 0.295,-0.096 0.488,-0.096 0.224,0 0.506,0.044 0.846,0.134 0.339,0.09 0.759,0.263 1.259,0.519 z"
             style="fill:currentColor;fill-opacity:1;fill-rule:nonzero;stroke:none"
             id="path220" />
        </g>
        <g
           id="g222"
           transform="translate(254.4332,66.539)">
          <path
             d="M 0,0 C -0.333,0 -0.641,-0.064 -0.917,-0.192 -1.199,-0.32 -1.445,-0.503 -1.66,-0.737 -1.875,-0.971 -2.051,-1.25 -2.199,-1.574 -2.34,-1.897 -2.442,-2.253 -2.5,-2.644 h 4.115 c 0.148,0 0.244,0.022 0.295,0.07 0.045,0.049 0.071,0.141 0.071,0.276 0,0.173 -0.026,0.388 -0.071,0.647 -0.051,0.26 -0.147,0.513 -0.288,0.76 C 1.474,-0.644 1.276,-0.433 1.013,-0.26 0.756,-0.087 0.417,0 0,0 M 3.557,-2.865 C 3.442,-2.993 3.288,-3.112 3.096,-3.221 2.904,-3.33 2.705,-3.426 2.5,-3.509 h -5.057 c 0.006,-0.5 0.073,-0.978 0.205,-1.43 0.131,-0.452 0.32,-0.849 0.57,-1.192 0.244,-0.343 0.542,-0.615 0.891,-0.82 0.349,-0.206 0.744,-0.308 1.179,-0.308 0.199,0 0.391,0.013 0.584,0.038 0.186,0.026 0.391,0.084 0.609,0.173 0.218,0.09 0.458,0.222 0.724,0.395 0.266,0.173 0.58,0.407 0.939,0.702 C 3.227,-5.996 3.298,-6.06 3.359,-6.144 3.42,-6.227 3.468,-6.294 3.5,-6.346 3.07,-6.814 2.692,-7.192 2.372,-7.477 2.045,-7.762 1.74,-7.98 1.455,-8.134 1.17,-8.288 0.891,-8.39 0.609,-8.438 0.333,-8.487 0.029,-8.509 -0.298,-8.509 c -0.494,0 -0.965,0.106 -1.407,0.317 -0.449,0.212 -0.84,0.51 -1.179,0.898 -0.34,0.387 -0.609,0.855 -0.814,1.403 C -3.897,-5.343 -4,-4.727 -4,-4.048 c 0,0.43 0.048,0.853 0.145,1.269 0.096,0.417 0.233,0.811 0.419,1.183 0.18,0.372 0.404,0.715 0.667,1.029 0.263,0.314 0.561,0.586 0.894,0.817 0.141,0.096 0.298,0.189 0.478,0.282 0.173,0.093 0.359,0.176 0.551,0.247 0.192,0.07 0.381,0.125 0.57,0.166 C -0.087,0.987 0.096,1.01 0.269,1.01 0.686,1.01 1.058,0.952 1.385,0.836 1.711,0.721 1.997,0.564 2.24,0.369 2.484,0.173 2.689,-0.054 2.856,-0.314 3.022,-0.574 3.16,-0.846 3.263,-1.135 3.372,-1.423 3.445,-1.718 3.49,-2.016 3.535,-2.314 3.557,-2.596 3.557,-2.865"
             style="fill:currentColor;fill-opacity:1;fill-rule:nonzero;stroke:none"
             id="path224" />
        </g>
        <g
           id="g226"
           transform="translate(264.8972,61.0394)">
          <path
             d="m 0,0 c 0,-0.455 -0.064,-0.846 -0.192,-1.17 -0.128,-0.323 -0.295,-0.596 -0.5,-0.82 -0.205,-0.225 -0.433,-0.404 -0.683,-0.539 -0.25,-0.134 -0.497,-0.237 -0.74,-0.307 C -2.359,-2.907 -2.59,-2.955 -2.801,-2.977 -3.019,-3 -3.186,-3.009 -3.307,-3.009 c -0.308,0 -0.68,0.057 -1.109,0.173 -0.436,0.115 -0.866,0.291 -1.295,0.528 -0.045,0.02 -0.077,0.122 -0.09,0.311 -0.019,0.189 -0.019,0.407 -0.013,0.654 0.013,0.247 0.032,0.497 0.058,0.747 0.032,0.25 0.067,0.449 0.112,0.596 l 0.414,-0.106 c 0.012,-0.269 0.083,-0.522 0.211,-0.759 0.128,-0.237 0.298,-0.443 0.513,-0.616 0.215,-0.173 0.465,-0.311 0.75,-0.413 0.285,-0.103 0.596,-0.154 0.929,-0.154 0.231,0 0.443,0.035 0.635,0.109 0.192,0.074 0.359,0.176 0.5,0.308 0.141,0.131 0.25,0.291 0.327,0.477 0.077,0.186 0.115,0.391 0.115,0.616 0,0.256 -0.07,0.484 -0.205,0.682 -0.141,0.199 -0.321,0.378 -0.545,0.542 -0.224,0.163 -0.481,0.317 -0.763,0.461 -0.288,0.145 -0.576,0.295 -0.871,0.449 -0.27,0.135 -0.529,0.279 -0.779,0.433 -0.25,0.154 -0.474,0.327 -0.67,0.519 -0.195,0.192 -0.352,0.407 -0.468,0.644 -0.122,0.237 -0.179,0.51 -0.179,0.817 0,0.398 0.08,0.75 0.24,1.061 0.16,0.311 0.372,0.574 0.638,0.785 0.266,0.212 0.57,0.372 0.916,0.484 0.34,0.112 0.696,0.17 1.061,0.17 0.199,0 0.42,-0.019 0.657,-0.054 0.244,-0.036 0.478,-0.084 0.712,-0.148 0.234,-0.064 0.455,-0.141 0.66,-0.231 0.205,-0.089 0.372,-0.192 0.5,-0.307 C -0.308,5.73 -0.301,5.644 -0.333,5.509 -0.359,5.375 -0.407,5.227 -0.468,5.067 -0.529,4.907 -0.593,4.756 -0.663,4.615 -0.734,4.474 -0.788,4.378 -0.827,4.327 L -1.202,4.404 C -1.509,4.865 -1.83,5.186 -2.16,5.368 -2.49,5.551 -2.811,5.644 -3.125,5.644 -3.336,5.644 -3.525,5.609 -3.692,5.538 -3.859,5.468 -4.003,5.375 -4.121,5.262 -4.24,5.15 -4.33,5.028 -4.391,4.894 -4.452,4.759 -4.48,4.625 -4.48,4.49 -4.48,4.285 -4.42,4.099 -4.298,3.936 -4.176,3.772 -4.016,3.618 -3.817,3.474 -3.618,3.33 -3.394,3.192 -3.141,3.061 -2.888,2.929 -2.625,2.795 -2.356,2.654 -2.08,2.513 -1.801,2.362 -1.519,2.202 -1.237,2.042 -0.984,1.856 -0.76,1.647 -0.535,1.439 -0.353,1.202 -0.212,0.936 -0.07,0.67 0,0.359 0,0"
             style="fill:currentColor;fill-opacity:1;fill-rule:nonzero;stroke:none"
             id="path228" />
        </g>
      </g>
    </g>
  </g>
</svg>
